<?xml version="1.0" encoding="UTF-8"?> <svg xmlns="http://www.w3.org/2000/svg" viewBox="0 0 204 258" xml:space="preserve"><linearGradient id="a" gradientUnits="userSpaceOnUse" x1="-2.263" y1="74.005" x2="134.2" y2="74.005"><stop offset="0" style="stop-color:#2ca81d"></stop><stop offset=".049" style="stop-color:#239e2e"></stop><stop offset=".13" style="stop-color:#179343"></stop><stop offset=".221" style="stop-color:#0f8a52"></stop><stop offset=".328" style="stop-color:#0a855a"></stop><stop offset=".493" style="stop-color:#09845d"></stop><stop offset=".501" style="stop-color:#088756"></stop><stop offset=".537" style="stop-color:#06913c"></stop><stop offset=".578" style="stop-color:#049926"></stop><stop offset=".627" style="stop-color:#029f15"></stop><stop offset=".687" style="stop-color:#01a409"></stop><stop offset=".77" style="stop-color:#00a602"></stop><stop offset="1" style="stop-color:#00a700"></stop></linearGradient><path fill="url(#a)" d="M71.8 99.3c-3.6 10.4-3.1 11.4-5.6 16.8-1.7 3.7-4.1 8.6-8.9 13.5-1.8 1.9-5.9 5.6-12.1 8.5-6.6 3-12.6 3.7-16.3 3.8H10.8c-4.6.1-8.4-3.5-8.4-8.1 2.3-80.7-16.7-59.4 63.7-63V15c0-4.9 4-8.8 8.9-8.8h56c4.1 0 7.5 3.3 7.5 7.5 0 15.9-1.6 33.1-8.3 42C117.6 72.5 98.4 76 93.1 76.8 85 78.3 80.7 82 78.4 84.5c-2.3 2.6-3.8 6.7-6.6 14.8z"></path><linearGradient id="b" gradientUnits="userSpaceOnUse" x1="87.775" y1="87.182" x2="125.748" y2="119.511"><stop offset="0" style="stop-color:#2ca81d"></stop><stop offset=".103" style="stop-color:#30a933"></stop><stop offset=".415" style="stop-color:#3aac71"></stop><stop offset=".679" style="stop-color:#42ae9e"></stop><stop offset=".882" style="stop-color:#46b0ba"></stop><stop offset="1" style="stop-color:#48b0c4"></stop></linearGradient><path fill="url(#b)" d="M128.8 82.4c-4.6.8-6.2 5.9-5.7 8.4.5 2.9 1.4 6.5 2.4 9.4 1.5 3.2 1.3 10.8 0 13.7-2 5.3-6.1 11.1-11.7 13.5-3.9 1.6-6.3 1.9-10.4 2.4-4.9.6-9.3.3-13.8-1.3 2.5-.4 7.3-2 9.4-3.6 3.7-2.8 5.7-7.1 5.1-10-2-8.8-13.5-14.6-21-14-2-4.7-2.2-8.3-4.2-13 13.6-2.5 20.4-1.2 31.3 8.8-1.6-3.4-3.6-3.9-4.1-5.7-.1-.4-.6-1.7 0-3.5 1.3-3.6 4.8-7.7 10.2-8.8 2.7-.6 4.9 0 6 .2 3.2.9 5.4 2.5 6.5 3.5z"></path><linearGradient id="c" gradientUnits="userSpaceOnUse" x1="66.876" y1="138.036" x2="202" y2="138.036"><stop offset="0" style="stop-color:#30b0c4"></stop><stop offset=".285" style="stop-color:#30aec4"></stop><stop offset=".388" style="stop-color:#30a7c5"></stop><stop offset=".461" style="stop-color:#309cc6"></stop><stop offset=".52" style="stop-color:#308bc7"></stop><stop offset=".528" style="stop-color:#3088c7"></stop><stop offset="1" style="stop-color:#3088c7"></stop></linearGradient><path fill="url(#c)" d="M138.4 141.8v54.5c0 5.5-4.5 10-10.1 10H75.7c-4.9 0-8.8-3.9-8.8-8.8v-19.9c.3-4.1 1.6-17.7 12.4-29.6 9.7-10.8 18.9-13.9 23.1-14.9 2.6-.5 11-2.6 17-6.5 6.2-4 8.6-14.1 9.4-16.8.4-1.2 5.2-24.5 20.9-32.5 4.3-2.2 14.7-5.8 26.8-7.2 2.7-.3 5.7-.5 9-.5 2.8 0 5.4.2 7.7.5.6 0 3.7.1 6.2 2.5 1.6 1.6 2.6 3.7 2.6 6.1v54.6c0 4.6-3.7 8.2-8.3 8.2h-55.3z"></path><g><linearGradient id="d" gradientUnits="userSpaceOnUse" x1="42.015" y1="226.349" x2="171.462" y2="226.349"><stop offset=".528" style="stop-color:#3088c7"></stop><stop offset="1" style="stop-color:#3088c7"></stop></linearGradient><path fill="url(#d)" d="M46.9 226.4v4.4c1.6 2 4.5 2 7.9 2 2.3 0 5-.1 6.6-.1-.2.3-.4.8-.5 1.1-1.4 0-3.5.1-5.5.1-4.4 0-7.1 0-9.1-2.1-.9.7-1.9 1.5-2.7 2.1 0 .2 0 .2-.2.3l-.8-1.2c.9-.6 2-1.3 3-2v-3.4h-2.7v-1.1h4zm-3.1-4.3c1.3.5 2.8 1.3 3.6 2l-.9.8c-.7-.7-2.2-1.5-3.5-2.1l.8-.7zm.8-3.5c1.2.5 2.7 1.4 3.4 2.1l-1 .8c-.7-.7-2.1-1.6-3.3-2.1l.9-.8zm12.7 7.1c1.6 1.5 3.3 3.6 4 5-.1.1-.2.1-1.2.5-.2-.4-.5-.9-.8-1.4-3.6.3-7.4.7-9.9.9 0 .1-.1.2-.3.2l-.6-1.3 1.9-.1c.7-1.3 1.6-3.3 2.1-4.9h-4.2v-1.1h13v1.1h-6.9c-.1.1-.2.1-.4.1-.5 1.3-1.4 3.2-2.2 4.7 2.1-.1 4.5-.3 6.8-.5-.7-1-1.6-1.9-2.4-2.8l1.1-.4zm2.5-6.3v1.1H49.6v-1.1h10.2z"></path><linearGradient id="e" gradientUnits="userSpaceOnUse" x1="42.015" y1="226.289" x2="171.462" y2="226.289"><stop offset=".528" style="stop-color:#3088c7"></stop><stop offset="1" style="stop-color:#3088c7"></stop></linearGradient><path fill="url(#e)" d="M66.4 228.7c.7-.2 1.3-.5 2-.7l.3 1c-1.9.8-3.9 1.5-5.2 2 0 .1-.1.2-.2.3l-.7-1.3c.7-.2 1.6-.5 2.6-.9v-5.6H63v-1.1h2.2v-3.9l1.6.1c0 .1-.1.2-.4.2v3.5h2v1.1h-2v5.3zm10.4-6.5c.1 2.4.4 4.6.7 6.4.8-1.4 1.5-2.9 2-4.6l1.6.3c0 .1-.2.2-.4.2-.6 2.1-1.5 4-2.7 5.6.5 1.8 1.1 2.9 1.9 2.9.4 0 .7-.9.7-2.9.3.2.7.5 1 .6-.2 2.6-.6 3.4-1.9 3.4-1.2 0-2.1-1.1-2.7-2.9-1 1.1-2.2 2-3.5 2.7-.2-.2-.6-.6-.9-.7 1.6-.8 2.9-1.9 4-3.3-.5-2.1-.9-4.9-1-7.8h-5.3v2.4h4.3v.4c-.1 3.9-.2 5.3-.5 5.7-.4.5-.9.5-1.8.5h-1.1c0-.3-.1-.7-.3-1 .7.1 1.4.1 1.7.1.3 0 .4 0 .5-.2.2-.3.3-1.4.3-4.5h-3.1v.6c0 2.4-.4 5.8-2.6 8-.2-.2-.7-.6-1-.7 2.1-2.1 2.3-5 2.3-7.3V221h6.5c0-.9-.1-1.9-.1-2.8l1.7.1c0 .1-.1.2-.4.2v2.5h4.4v1.1h-4.3zm1.7-3.8c1 .6 2.1 1.4 2.7 2.1l-1 .6c-.5-.6-1.7-1.5-2.7-2.1l1-.6z"></path><linearGradient id="f" gradientUnits="userSpaceOnUse" x1="42.015" y1="226.246" x2="171.462" y2="226.246"><stop offset=".528" style="stop-color:#3088c7"></stop><stop offset="1" style="stop-color:#3088c7"></stop></linearGradient><path fill="url(#f)" d="M89 224h-2.4v10.1h-1.3V224h-2.6v-1h2.6v-4.6l1.7.1c0 .1-.1.2-.4.2v4.3H89v1zm12.4 4.9v1h-3.2v3c0 1.2-.6 1.2-3.6 1.2-.1-.3-.2-.7-.4-1h1.5c1.1 0 1.2 0 1.2-.3v-3h-8.8v-1h8.8v-1.3h-7.2v-5.3h4.6v-1.1h-5.6v-1h5.6v-2l1.7.1c0 .1-.1.2-.4.2v1.7h3.6c-.7-.4-1.7-.9-2.5-1.2l.7-.7c1 .4 2.3 1 3 1.4l-.4.5h1.3v1h-5.7v1.1h4.8v5.3h-1.8c-.1.1-.2.1-.4.1v1.1h3.2zm-8.4 4.2c-.5-.7-1.7-1.7-2.7-2.3l.9-.6c1 .6 2.2 1.6 2.7 2.2l-.9.7zm-2-9.8v1.4h3.4v-1.4H91zm0 2.2v1.4h3.4v-1.4H91zm8.1-2.2h-3.5v1.4h3.5v-1.4zm0 3.6v-1.4h-3.5v1.4h3.5z"></path><linearGradient id="g" gradientUnits="userSpaceOnUse" x1="42.015" y1="226.272" x2="171.462" y2="226.272"><stop offset=".528" style="stop-color:#3088c7"></stop><stop offset="1" style="stop-color:#3088c7"></stop></linearGradient><path fill="url(#g)" d="M121.2 232.2v1.1h-7.7v.9h-1.3v-10.1c-.3.4-.6.8-.9 1.1v.7h-1.6v6.8c0 1.4-.7 1.5-3.8 1.5-.1-.3-.3-.8-.5-1.1h1.9c1.1 0 1.2 0 1.2-.4v-6.2c-1.2 2.3-3.2 4.6-5.2 6-.2-.3-.5-.7-.8-1 1.9-1.2 3.8-3.4 5-5.6h-4.7v-1.1h1.7v-4.3h-1.3v-1.1h8.1v1.1h-1.5v4.3h1.1c-.2-.1-.3-.2-.4-.3 1.4-1.4 2.6-3.8 3.4-6.1l1.6.4c-.1.1-.2.2-.4.2-.3.9-.8 1.8-1.2 2.7h2.5c.5-.9 1-2.2 1.3-3.1l1.6.4c0 .1-.2.2-.4.2-.3.7-.8 1.7-1.2 2.6h3.4v1.1h-3.2v2.4h3v1h-3v2.5h3v1h-3v2.5h3.3zm-15.6-11.8v4.3h2.8v-4.3h-2.8zm10.9 4.8v-2.4h-3v2.4h3zm0 3.5v-2.5h-3v2.5h3zm-3 1v2.5h3v-2.5h-3z"></path><linearGradient id="h" gradientUnits="userSpaceOnUse" x1="42.015" y1="226.757" x2="171.462" y2="226.757"><stop offset=".528" style="stop-color:#3088c7"></stop><stop offset="1" style="stop-color:#3088c7"></stop></linearGradient><path fill="url(#h)" d="M141.1 232.2v1.1h-15.9v.9h-1.3v-14.9h16.8v1.1h-15.5v11.8h15.9zm-.8-6.4v1h-6.2c1 1.9 3.1 3 6.1 3.5-.3.2-.7.7-.8 1-2.8-.5-4.9-1.7-6.1-3.5-.7 1.4-2.4 2.7-6.1 3.6-.2-.3-.5-.7-.8-.9 4.2-1 5.5-2.4 5.9-3.7h-6v-1h6.1v-2.4h-3.2c-.5.7-1.1 1.3-1.6 1.8-.3-.2-.7-.4-1-.6 1.1-.9 2.2-2.3 2.7-3.8l1.5.4c0 .1-.2.2-.4.2-.2.4-.3.7-.5 1.1h9.2v1h-5.3v2.4h6.5z"></path><linearGradient id="i" gradientUnits="userSpaceOnUse" x1="42.015" y1="226.272" x2="171.462" y2="226.272"><stop offset=".528" style="stop-color:#3088c7"></stop><stop offset="1" style="stop-color:#3088c7"></stop></linearGradient><path fill="url(#i)" d="m148.4 219.1.9.4c0 .1-.1.1-.2.2-.5 1.3-1.3 3-2 4.4 1.5 1.4 2.1 2.6 2.1 3.7 0 2.4-1.8 2.4-3.3 2.3 0-.3-.2-.7-.3-1 .3 0 .6.1.9.1.8 0 1.6 0 1.6-1.4 0-1-.6-2.1-2.1-3.5.6-1.3 1.3-2.9 1.7-4.1h-2.9v14h-1.2v-15.1h4.8zm9 13.2c0 .4.1.5.5.5h1.5c.5 0 .5-.3.6-2.2.3.2.8.4 1.2.5-.1 2.2-.5 2.7-1.6 2.7h-1.8c-1.3 0-1.6-.3-1.6-1.5v-4.7h-2.5c-.3 3.1-1 5.4-4.9 6.6-.1-.3-.5-.7-.8-.9 3.4-1 4.1-2.8 4.3-5.7h-2.8v-1.1H161v1.1h-3.6v4.7zm-6.8-10.9v2.1h-1.2v-3.1h5v-2.1l1.7.1c0 .1-.1.2-.4.2v1.8h5.2v3.1h-1.3v-2.1h-9zm8.7 3H151v-1h8.3v1z"></path><text transform="matrix(1.1751 0 0 1 42.016 232.72)" fill="#30B0C4" font-family="'KozGoPr6N-Regular-90ms-RKSJ-H'" font-size="17.016">运城博雅医院</text></g><g><linearGradient id="j" gradientUnits="userSpaceOnUse" x1="38.451" y1="245.08" x2="163.355" y2="245.08"><stop offset="0" style="stop-color:#30b0c4"></stop><stop offset=".118" style="stop-color:#30a5c5"></stop><stop offset=".462" style="stop-color:#3088c7"></stop><stop offset="1" style="stop-color:#3088c7"></stop></linearGradient><path fill="url(#j)" d="m45 240.9-2.5 5.4v3h-1.7v-3l-2.4-5.4h1.9l1.2 3.2s0 .1.1.2c0 .1.1.3.1.5 0-.1 0-.3.1-.4 0-.1.1-.2.1-.3l1.3-3.2H45z"></path><linearGradient id="k" gradientUnits="userSpaceOnUse" x1="38.451" y1="246.285" x2="163.355" y2="246.285"><stop offset="0" style="stop-color:#30b0c4"></stop><stop offset=".118" style="stop-color:#30a5c5"></stop><stop offset=".462" style="stop-color:#3088c7"></stop><stop offset="1" style="stop-color:#3088c7"></stop></linearGradient><path fill="url(#k)" d="M51 249.3h-1.6v-.9c-.2.4-.5.6-.7.8s-.6.3-1 .3c-.6 0-1.1-.2-1.4-.6-.3-.4-.5-1.1-.5-1.9v-3.7h1.6v3.5c0 .5.1.8.2 1 .2.2.4.3.7.3.3 0 .6-.1.8-.4.2-.3.3-.6.3-1v-3.5H51v6.1z"></path><linearGradient id="l" gradientUnits="userSpaceOnUse" x1="38.451" y1="246.132" x2="163.355" y2="246.132"><stop offset="0" style="stop-color:#30b0c4"></stop><stop offset=".118" style="stop-color:#30a5c5"></stop><stop offset=".462" style="stop-color:#3088c7"></stop><stop offset="1" style="stop-color:#3088c7"></stop></linearGradient><path fill="url(#l)" d="M57.8 249.3h-1.6v-3.4c0-.5-.1-.9-.2-1.1-.2-.2-.4-.4-.7-.4-.3 0-.6.1-.8.4s-.3.6-.3 1v3.5h-1.6v-6.2h1.6v1c.2-.4.5-.7.8-.9.3-.2.6-.3 1-.3.6 0 1.1.2 1.4.6.3.4.5 1.1.5 1.9v3.9z"></path><linearGradient id="m" gradientUnits="userSpaceOnUse" x1="38.451" y1="246.209" x2="163.355" y2="246.209"><stop offset="0" style="stop-color:#30b0c4"></stop><stop offset=".118" style="stop-color:#30a5c5"></stop><stop offset=".462" style="stop-color:#3088c7"></stop><stop offset="1" style="stop-color:#3088c7"></stop></linearGradient><path fill="url(#m)" d="M63.6 248.9c-.3.2-.6.3-.9.4-.3.1-.6.1-.9.1-.9 0-1.6-.3-2.2-.9-.5-.6-.8-1.3-.8-2.2 0-1 .3-1.9.8-2.5.6-.6 1.3-.9 2.2-.9.3 0 .6 0 .9.1.3.1.5.2.8.4l-.6 1.2c-.2-.1-.3-.2-.5-.2s-.3-.1-.5-.1c-.5 0-.8.2-1.1.5-.3.3-.4.8-.4 1.4 0 .6.1 1 .4 1.3.3.3.6.5 1 .5.1 0 .3 0 .5-.1s.4-.1.6-.3l.7 1.3z"></path><linearGradient id="n" gradientUnits="userSpaceOnUse" x1="38.451" y1="244.839" x2="163.355" y2="244.839"><stop offset="0" style="stop-color:#30b0c4"></stop><stop offset=".118" style="stop-color:#30a5c5"></stop><stop offset=".462" style="stop-color:#3088c7"></stop><stop offset="1" style="stop-color:#3088c7"></stop></linearGradient><path fill="url(#n)" d="M69.9 249.3h-1.6v-3.5c0-.5-.1-.8-.2-1.1-.2-.2-.4-.4-.7-.4-.3 0-.6.1-.8.4s-.3.6-.3 1v3.5h-1.6v-8.9h1.6v3.7c.2-.4.5-.6.7-.8.3-.2.6-.3 1-.3.6 0 1.1.2 1.4.6.3.4.5 1.1.5 1.9v3.9z"></path><linearGradient id="o" gradientUnits="userSpaceOnUse" x1="38.451" y1="246.209" x2="163.355" y2="246.209"><stop offset="0" style="stop-color:#30b0c4"></stop><stop offset=".118" style="stop-color:#30a5c5"></stop><stop offset=".462" style="stop-color:#3088c7"></stop><stop offset="1" style="stop-color:#3088c7"></stop></linearGradient><path fill="url(#o)" d="M76.2 246.7h-3.6c0 .5.2.8.4 1.1.2.2.6.4 1 .4.2 0 .4-.1.7-.2.3-.1.6-.3.8-.5l.7 1c-.4.3-.8.5-1.1.7-.4.1-.8.2-1.3.2-.9 0-1.6-.3-2.1-.8-.5-.6-.7-1.3-.7-2.3 0-1 .3-1.8.8-2.4s1.2-.9 2-.9 1.4.3 1.8.8c.5.5.7 1.3.7 2.2v.7zm-1.5-1.1c0-.5-.1-.8-.3-1.1-.2-.2-.4-.3-.8-.3-.3 0-.5.1-.8.4s-.3.6-.4 1h2.3z"></path><linearGradient id="p" gradientUnits="userSpaceOnUse" x1="38.451" y1="246.132" x2="163.355" y2="246.132"><stop offset="0" style="stop-color:#30b0c4"></stop><stop offset=".118" style="stop-color:#30a5c5"></stop><stop offset=".462" style="stop-color:#3088c7"></stop><stop offset="1" style="stop-color:#3088c7"></stop></linearGradient><path fill="url(#p)" d="M82.6 249.3H81v-3.4c0-.5-.1-.9-.2-1.1-.2-.2-.4-.4-.7-.4-.3 0-.6.1-.8.4-.2.3-.3.6-.3 1v3.5h-1.6v-6.2H79v1c.2-.4.5-.7.8-.9.3-.2.6-.3 1-.3.6 0 1.1.2 1.4.6.3.4.5 1.1.5 1.9v3.9z"></path><linearGradient id="q" gradientUnits="userSpaceOnUse" x1="38.451" y1="247.543" x2="163.355" y2="247.543"><stop offset="0" style="stop-color:#30b0c4"></stop><stop offset=".118" style="stop-color:#30a5c5"></stop><stop offset=".462" style="stop-color:#3088c7"></stop><stop offset="1" style="stop-color:#3088c7"></stop></linearGradient><path fill="url(#q)" d="M89.4 248.6c0 1-.3 1.9-.8 2.5-.6.7-1.4 1-2.5 1-.4 0-.8 0-1.1-.1-.3-.1-.7-.2-1-.4l.5-1.2c.3.1.6.2.8.3.3.1.6.1.9.1.5 0 1-.2 1.2-.5s.4-.8.4-1.4v-.5c-.2.4-.4.6-.7.8-.3.2-.6.3-1 .3-.7 0-1.3-.3-1.7-.8-.4-.6-.6-1.3-.6-2.2 0-1 .2-1.9.7-2.5.5-.6 1.1-.9 1.8-.9.3 0 .6.1.9.2.3.1.5.4.6.7v-.7h1.6v5.3zm-1.6-2.2v-.5c0-.4-.1-.7-.3-1s-.5-.4-.8-.4c-.4 0-.7.2-.9.5-.2.3-.3.8-.3 1.4 0 .5.1 1 .3 1.3.2.3.5.5.9.5s.7-.2.9-.5c.1-.4.2-.8.2-1.3z"></path><linearGradient id="r" gradientUnits="userSpaceOnUse" x1="38.451" y1="245.08" x2="163.355" y2="245.08"><stop offset="0" style="stop-color:#30b0c4"></stop><stop offset=".118" style="stop-color:#30a5c5"></stop><stop offset=".462" style="stop-color:#3088c7"></stop><stop offset="1" style="stop-color:#3088c7"></stop></linearGradient><path fill="url(#r)" d="M94.1 249.3v-8.4h2.7c.8 0 1.5.2 1.9.5.4.4.7.9.7 1.5 0 .4-.1.8-.4 1.2-.2.3-.6.6-.9.7.5.1.9.3 1.2.6.3.4.4.8.4 1.3 0 .8-.2 1.4-.7 1.8-.5.5-1.2.7-2 .7h-2.9zm1.6-7.1v2.1h.8c.4 0 .6-.1.8-.3.2-.2.3-.5.3-.8 0-.3-.1-.6-.3-.8-.2-.2-.5-.3-1-.3h-.6zm0 3.5v2.2h.9c.4 0 .7-.1.9-.3.2-.2.3-.5.3-.9 0-.3-.1-.6-.3-.8-.2-.2-.5-.3-.9-.3h-.9z"></path><linearGradient id="s" gradientUnits="userSpaceOnUse" x1="38.451" y1="246.209" x2="163.355" y2="246.209"><stop offset="0" style="stop-color:#30b0c4"></stop><stop offset=".118" style="stop-color:#30a5c5"></stop><stop offset=".462" style="stop-color:#3088c7"></stop><stop offset="1" style="stop-color:#3088c7"></stop></linearGradient><path fill="url(#s)" d="M103.5 249.4c-.9 0-1.6-.3-2.2-.9-.5-.6-.8-1.4-.8-2.3 0-1 .3-1.8.8-2.4.5-.6 1.3-.9 2.2-.9.9 0 1.6.3 2.1.9.5.6.8 1.3.8 2.3 0 1-.3 1.8-.8 2.4-.4.6-1.2.9-2.1.9zm.1-1.3c.4 0 .8-.2 1-.5.2-.3.3-.8.3-1.4 0-.6-.1-1-.3-1.3-.2-.3-.5-.5-1-.5-.4 0-.8.2-1 .5-.2.3-.4.8-.4 1.4 0 .6.1 1.1.3 1.4.3.2.6.4 1.1.4z"></path><linearGradient id="t" gradientUnits="userSpaceOnUse" x1="38.451" y1="247.648" x2="163.355" y2="247.648"><stop offset="0" style="stop-color:#30b0c4"></stop><stop offset=".118" style="stop-color:#30a5c5"></stop><stop offset=".462" style="stop-color:#3088c7"></stop><stop offset="1" style="stop-color:#3088c7"></stop></linearGradient><path fill="url(#t)" d="m112.9 243.1-2.5 7.3c-.2.6-.5 1-.8 1.3-.4.3-.8.5-1.3.5h-.5c-.2 0-.3-.1-.5-.1l.3-1.3c.1 0 .2.1.3.1h.3c.2 0 .3 0 .5-.1s.2-.3.3-.5l.4-.9-2.2-6.1h1.8l1.1 3.9c0 .1.1.2.1.4s0 .3.1.4c0-.1 0-.2.1-.4 0-.1.1-.3.1-.4l1.1-3.9h1.3z"></path><linearGradient id="u" gradientUnits="userSpaceOnUse" x1="38.451" y1="246.209" x2="163.355" y2="246.209"><stop offset="0" style="stop-color:#30b0c4"></stop><stop offset=".118" style="stop-color:#30a5c5"></stop><stop offset=".462" style="stop-color:#3088c7"></stop><stop offset="1" style="stop-color:#3088c7"></stop></linearGradient><path fill="url(#u)" d="M118.2 249.3h-1.5v-.9c-.2.3-.4.6-.7.8-.3.2-.6.3-.9.3-.5 0-.9-.2-1.2-.5-.3-.3-.5-.8-.5-1.4 0-.6.2-1 .5-1.4.3-.4.9-.6 1.6-.7l1.4-.2v-.1c0-.3-.1-.6-.3-.7-.2-.2-.4-.2-.7-.2-.2 0-.5 0-.8.1-.3.1-.6.2-.8.4l-.6-1.1c.4-.2.7-.4 1.1-.5.4-.1.8-.2 1.2-.2.8 0 1.4.2 1.8.6.4.4.6 1.1.6 1.9v3.8zm-1.5-2.5v-.4l-1 .2c-.3 0-.5.1-.7.3-.1.1-.2.3-.2.6 0 .2.1.4.2.6.1.1.3.2.6.2s.6-.1.8-.4c.2-.4.3-.7.3-1.1z"></path><linearGradient id="v" gradientUnits="userSpaceOnUse" x1="38.451" y1="245.08" x2="163.355" y2="245.08"><stop offset="0" style="stop-color:#30b0c4"></stop><stop offset=".118" style="stop-color:#30a5c5"></stop><stop offset=".462" style="stop-color:#3088c7"></stop><stop offset="1" style="stop-color:#3088c7"></stop></linearGradient><path fill="url(#v)" d="M129.3 249.3h-1.7v-3.5h-3.2v3.5h-1.6v-8.4h1.6v3.4h3.2v-3.4h1.7v8.4z"></path><linearGradient id="w" gradientUnits="userSpaceOnUse" x1="38.451" y1="246.209" x2="163.355" y2="246.209"><stop offset="0" style="stop-color:#30b0c4"></stop><stop offset=".118" style="stop-color:#30a5c5"></stop><stop offset=".462" style="stop-color:#3088c7"></stop><stop offset="1" style="stop-color:#3088c7"></stop></linearGradient><path fill="url(#w)" d="M133.6 249.4c-.9 0-1.6-.3-2.2-.9-.5-.6-.8-1.4-.8-2.3 0-1 .3-1.8.8-2.4.5-.6 1.3-.9 2.2-.9.9 0 1.6.3 2.1.9.5.6.8 1.3.8 2.3 0 1-.3 1.8-.8 2.4s-1.2.9-2.1.9zm.1-1.3c.4 0 .8-.2 1-.5.2-.3.3-.8.3-1.4 0-.6-.1-1-.3-1.3-.2-.3-.5-.5-1-.5-.4 0-.8.2-1 .5-.2.3-.4.8-.4 1.4 0 .6.1 1.1.3 1.4.3.2.6.4 1.1.4z"></path><linearGradient id="x" gradientUnits="userSpaceOnUse" x1="38.451" y1="246.206" x2="163.355" y2="246.206"><stop offset="0" style="stop-color:#30b0c4"></stop><stop offset=".118" style="stop-color:#30a5c5"></stop><stop offset=".462" style="stop-color:#3088c7"></stop><stop offset="1" style="stop-color:#3088c7"></stop></linearGradient><path fill="url(#x)" d="m137.3 248.8.7-1.2c.2.2.4.3.7.4.3.1.5.2.8.2.2 0 .4 0 .6-.1.1-.1.2-.2.2-.4s-.1-.3-.2-.4c-.1-.1-.3-.2-.6-.3-.7-.2-1.2-.4-1.5-.7-.3-.3-.4-.7-.4-1.2 0-.6.2-1.1.7-1.5.4-.4 1-.6 1.6-.6.3 0 .6 0 .9.1.3.1.6.2.8.4l-.6 1.2c-.2-.2-.4-.3-.6-.3-.2-.1-.4-.1-.6-.1-.2 0-.4.1-.6.2-.1.1-.2.2-.2.4s.1.3.2.4c.1.1.4.2.8.3.6.1 1.1.4 1.4.7.3.3.4.7.4 1.2 0 .6-.2 1.1-.6 1.5-.4.4-1 .6-1.7.6-.4 0-.7-.1-1.1-.2-.4-.2-.8-.4-1.1-.6z"></path><linearGradient id="y" gradientUnits="userSpaceOnUse" x1="38.451" y1="247.513" x2="163.355" y2="247.513"><stop offset="0" style="stop-color:#30b0c4"></stop><stop offset=".118" style="stop-color:#30a5c5"></stop><stop offset=".462" style="stop-color:#3088c7"></stop><stop offset="1" style="stop-color:#3088c7"></stop></linearGradient><path fill="url(#y)" d="M144.4 248.5v3.5h-1.6v-8.9h1.6v.9c.2-.4.5-.6.8-.8s.6-.3 1-.3c.7 0 1.3.3 1.7.8.4.5.6 1.3.6 2.2 0 1-.2 1.8-.7 2.5-.5.6-1.1.9-1.8.9-.3 0-.6-.1-.9-.2s-.5-.3-.7-.6zm-.1-2.5v.5c0 .4.1.8.3 1.1.2.3.5.4.8.4.4 0 .7-.2.9-.5.2-.3.3-.8.3-1.5 0-.6-.1-1-.3-1.3s-.5-.4-.9-.4-.7.2-.9.5c-.1.3-.2.7-.2 1.2z"></path><linearGradient id="z" gradientUnits="userSpaceOnUse" x1="38.451" y1="244.804" x2="163.355" y2="244.804"><stop offset="0" style="stop-color:#30b0c4"></stop><stop offset=".118" style="stop-color:#30a5c5"></stop><stop offset=".462" style="stop-color:#3088c7"></stop><stop offset="1" style="stop-color:#3088c7"></stop></linearGradient><path fill="url(#z)" d="M150.4 242.3c-.3 0-.5-.1-.7-.3-.2-.2-.3-.4-.3-.7 0-.3.1-.5.3-.7.2-.2.4-.3.7-.3s.5.1.7.3c.2.2.3.4.3.7 0 .3-.1.5-.3.7-.1.2-.4.3-.7.3zm.8 7h-1.6v-6.2h1.6v6.2z"></path><linearGradient id="A" gradientUnits="userSpaceOnUse" x1="38.451" y1="245.332" x2="163.355" y2="245.332"><stop offset="0" style="stop-color:#30b0c4"></stop><stop offset=".118" style="stop-color:#30a5c5"></stop><stop offset=".462" style="stop-color:#3088c7"></stop><stop offset="1" style="stop-color:#3088c7"></stop></linearGradient><path fill="url(#A)" d="M156.2 249.2c-.2.1-.4.1-.6.2-.2 0-.4.1-.6.1-.6 0-1-.2-1.3-.5-.3-.3-.5-.8-.5-1.4v-3.1h-.9v-1.3h.9v-1.4l1.6-.5v1.9h1.3v1.3h-1.3v2.9c0 .3 0 .4.1.5.1.1.2.2.4.2h.3c.1 0 .2-.1.2-.1l.4 1.2z"></path><linearGradient id="B" gradientUnits="userSpaceOnUse" x1="38.451" y1="246.209" x2="163.355" y2="246.209"><stop offset="0" style="stop-color:#30b0c4"></stop><stop offset=".118" style="stop-color:#30a5c5"></stop><stop offset=".462" style="stop-color:#3088c7"></stop><stop offset="1" style="stop-color:#3088c7"></stop></linearGradient><path fill="url(#B)" d="M161.7 249.3h-1.5v-.9c-.2.3-.4.6-.7.8-.3.2-.6.3-.9.3-.5 0-.9-.2-1.2-.5-.3-.3-.5-.8-.5-1.4 0-.6.2-1 .5-1.4.3-.4.9-.6 1.6-.7l1.4-.2v-.1c0-.3-.1-.6-.3-.7-.2-.2-.4-.2-.7-.2-.2 0-.5 0-.8.1-.3.1-.6.2-.8.4l-.6-1.1c.4-.2.7-.4 1.1-.5.4-.1.8-.2 1.2-.2.8 0 1.4.2 1.8.6.4.4.6 1.1.6 1.9v3.8zm-1.5-2.5v-.4l-1 .2c-.3 0-.5.1-.7.3-.1.1-.2.3-.2.6 0 .2.1.4.2.6.1.1.3.2.6.2s.6-.1.8-.4c.2-.4.3-.7.3-1.1z"></path><linearGradient id="C" gradientUnits="userSpaceOnUse" x1="38.451" y1="244.839" x2="163.355" y2="244.839"><stop offset="0" style="stop-color:#30b0c4"></stop><stop offset=".118" style="stop-color:#30a5c5"></stop><stop offset=".462" style="stop-color:#3088c7"></stop><stop offset="1" style="stop-color:#3088c7"></stop></linearGradient><path fill="url(#C)" d="M163.2 249.3v-8.9h1.6v8.9h-1.6z"></path><linearGradient id="D" gradientUnits="userSpaceOnUse" x1="38.504" y1="246.244" x2="164.784" y2="246.244"><stop offset="0" style="stop-color:#30b0c4"></stop><stop offset=".243" style="stop-color:#3d92c5"></stop><stop offset=".321" style="stop-color:#4288c6"></stop><stop offset=".45" style="stop-color:#3a9485"></stop><stop offset=".643" style="stop-color:#2ca81d"></stop><stop offset=".753" style="stop-color:#2a9b36"></stop><stop offset=".911" style="stop-color:#278b54"></stop><stop offset="1" style="stop-color:#26855f"></stop></linearGradient><path fill="url(#D)" d="m45 240.9-2.5 5.4v3h-1.7v-3l-2.4-5.4h1.9l1.2 3.2s0 .1.1.2c0 .1.1.3.1.5 0-.1 0-.3.1-.4 0-.1.1-.2.1-.3l1.3-3.2H45zm6 8.4h-1.6v-.9c-.2.4-.5.6-.7.8s-.6.3-1 .3c-.6 0-1.1-.2-1.4-.6-.3-.4-.5-1.1-.5-1.9v-3.7h1.6v3.5c0 .5.1.8.2 1 .2.2.4.3.7.3.3 0 .6-.1.8-.4.2-.3.3-.6.3-1v-3.5H51v6.1zm6.8 0h-1.6v-3.4c0-.5-.1-.9-.2-1.1-.2-.2-.4-.4-.7-.4-.3 0-.6.1-.8.4s-.3.6-.3 1v3.5h-1.6v-6.2h1.6v1c.2-.4.5-.7.8-.9.3-.2.6-.3 1-.3.6 0 1.1.2 1.4.6.3.4.5 1.1.5 1.9v3.9zm5.8-.4c-.3.2-.6.3-.9.4-.3.1-.6.1-.9.1-.9 0-1.6-.3-2.2-.9-.5-.6-.8-1.3-.8-2.2 0-1 .3-1.9.8-2.5.6-.6 1.3-.9 2.2-.9.3 0 .6 0 .9.1.3.1.5.2.8.4l-.6 1.2c-.2-.1-.3-.2-.5-.2s-.3-.1-.5-.1c-.5 0-.8.2-1.1.5-.3.3-.4.8-.4 1.4 0 .6.1 1 .4 1.3.3.3.6.5 1 .5.1 0 .3 0 .5-.1s.4-.1.6-.3l.7 1.3zm6.3.4h-1.6v-3.5c0-.5-.1-.8-.2-1.1-.2-.2-.4-.4-.7-.4-.3 0-.6.1-.8.4s-.3.6-.3 1v3.5h-1.6v-8.9h1.6v3.7c.2-.4.5-.6.7-.8.3-.2.6-.3 1-.3.6 0 1.1.2 1.4.6.3.4.5 1.1.5 1.9v3.9zm6.3-2.6h-3.6c0 .5.2.8.4 1.1.2.2.6.4 1 .4.2 0 .4-.1.7-.2.3-.1.6-.3.8-.5l.7 1c-.4.3-.8.5-1.1.7-.4.1-.8.2-1.3.2-.9 0-1.6-.3-2.1-.8-.5-.6-.7-1.3-.7-2.3 0-1 .3-1.8.8-2.4s1.2-.9 2-.9 1.4.3 1.8.8c.5.5.7 1.3.7 2.2v.7zm-1.5-1.1c0-.5-.1-.8-.3-1.1-.2-.2-.4-.3-.8-.3-.3 0-.5.1-.8.4s-.3.6-.4 1h2.3zm7.9 3.7H81v-3.4c0-.5-.1-.9-.2-1.1-.2-.2-.4-.4-.7-.4-.3 0-.6.1-.8.4-.2.3-.3.6-.3 1v3.5h-1.6v-6.2H79v1c.2-.4.5-.7.8-.9.3-.2.6-.3 1-.3.6 0 1.1.2 1.4.6.3.4.5 1.1.5 1.9v3.9zm6.8-.7c0 1-.3 1.9-.8 2.5-.6.7-1.4 1-2.5 1-.4 0-.8 0-1.1-.1-.3-.1-.7-.2-1-.4l.5-1.2c.3.1.6.2.8.3.3.1.6.1.9.1.5 0 1-.2 1.2-.5s.4-.8.4-1.4v-.5c-.2.4-.4.6-.7.8-.3.2-.6.3-1 .3-.7 0-1.3-.3-1.7-.8-.4-.6-.6-1.3-.6-2.2 0-1 .2-1.9.7-2.5.5-.6 1.1-.9 1.8-.9.3 0 .6.1.9.2.3.1.5.4.6.7v-.7h1.6v5.3zm-1.6-2.2v-.5c0-.4-.1-.7-.3-1s-.5-.4-.8-.4c-.4 0-.7.2-.9.5-.2.3-.3.8-.3 1.4 0 .5.1 1 .3 1.3.2.3.5.5.9.5s.7-.2.9-.5c.1-.4.2-.8.2-1.3zm6.3 2.9v-8.4h2.7c.8 0 1.5.2 1.9.5.4.4.7.9.7 1.5 0 .4-.1.8-.4 1.2-.2.3-.6.6-.9.7.5.1.9.3 1.2.6.3.4.4.8.4 1.3 0 .8-.2 1.4-.7 1.8-.5.5-1.2.7-2 .7h-2.9zm1.6-7.1v2.1h.8c.4 0 .6-.1.8-.3.2-.2.3-.5.3-.8 0-.3-.1-.6-.3-.8-.2-.2-.5-.3-1-.3h-.6zm0 3.5v2.2h.9c.4 0 .7-.1.9-.3.2-.2.3-.5.3-.9 0-.3-.1-.6-.3-.8-.2-.2-.5-.3-.9-.3h-.9zm7.8 3.7c-.9 0-1.6-.3-2.2-.9-.5-.6-.8-1.4-.8-2.3 0-1 .3-1.8.8-2.4.5-.6 1.3-.9 2.2-.9.9 0 1.6.3 2.1.9.5.6.8 1.3.8 2.3 0 1-.3 1.8-.8 2.4-.4.6-1.2.9-2.1.9zm.1-1.3c.4 0 .8-.2 1-.5.2-.3.3-.8.3-1.4 0-.6-.1-1-.3-1.3-.2-.3-.5-.5-1-.5-.4 0-.8.2-1 .5-.2.3-.4.8-.4 1.4 0 .6.1 1.1.3 1.4.3.2.6.4 1.1.4zm9.3-5-2.5 7.3c-.2.6-.5 1-.8 1.3-.4.3-.8.5-1.3.5h-.5c-.2 0-.3-.1-.5-.1l.3-1.3c.1 0 .2.1.3.1h.3c.2 0 .3 0 .5-.1s.2-.3.3-.5l.4-.9-2.2-6.1h1.8l1.1 3.9c0 .1.1.2.1.4s0 .3.1.4c0-.1 0-.2.1-.4 0-.1.1-.3.1-.4l1.1-3.9h1.3zm5.3 6.2h-1.5v-.9c-.2.3-.4.6-.7.8-.3.2-.6.3-.9.3-.5 0-.9-.2-1.2-.5-.3-.3-.5-.8-.5-1.4 0-.6.2-1 .5-1.4.3-.4.9-.6 1.6-.7l1.4-.2v-.1c0-.3-.1-.6-.3-.7-.2-.2-.4-.2-.7-.2-.2 0-.5 0-.8.1-.3.1-.6.2-.8.4l-.6-1.1c.4-.2.7-.4 1.1-.5.4-.1.8-.2 1.2-.2.8 0 1.4.2 1.8.6.4.4.6 1.1.6 1.9v3.8zm-1.5-2.5v-.4l-1 .2c-.3 0-.5.1-.7.3-.1.1-.2.3-.2.6 0 .2.1.4.2.6.1.1.3.2.6.2s.6-.1.8-.4c.2-.4.3-.7.3-1.1zm12.6 2.5h-1.7v-3.5h-3.2v3.5h-1.6v-8.4h1.6v3.4h3.2v-3.4h1.7v8.4zm4.3.1c-.9 0-1.6-.3-2.2-.9-.5-.6-.8-1.4-.8-2.3 0-1 .3-1.8.8-2.4.5-.6 1.3-.9 2.2-.9.9 0 1.6.3 2.1.9.5.6.8 1.3.8 2.3 0 1-.3 1.8-.8 2.4s-1.2.9-2.1.9zm.1-1.3c.4 0 .8-.2 1-.5.2-.3.3-.8.3-1.4 0-.6-.1-1-.3-1.3-.2-.3-.5-.5-1-.5-.4 0-.8.2-1 .5-.2.3-.4.8-.4 1.4 0 .6.1 1.1.3 1.4.3.2.6.4 1.1.4zm3.6.7.7-1.2c.2.2.4.3.7.4.3.1.5.2.8.2.2 0 .4 0 .6-.1.1-.1.2-.2.2-.4s-.1-.3-.2-.4c-.1-.1-.3-.2-.6-.3-.7-.2-1.2-.4-1.5-.7-.3-.3-.4-.7-.4-1.2 0-.6.2-1.1.7-1.5.4-.4 1-.6 1.6-.6.3 0 .6 0 .9.1.3.1.6.2.8.4l-.6 1.2c-.2-.2-.4-.3-.6-.3-.2-.1-.4-.1-.6-.1-.2 0-.4.1-.6.2-.1.1-.2.2-.2.4s.1.3.2.4c.1.1.4.2.8.3.6.1 1.1.4 1.4.7.3.3.4.7.4 1.2 0 .6-.2 1.1-.6 1.5-.4.4-1 .6-1.7.6-.4 0-.7-.1-1.1-.2-.4-.2-.8-.4-1.1-.6zm7.1-.3v3.5h-1.6v-8.9h1.6v.9c.2-.4.5-.6.8-.8s.6-.3 1-.3c.7 0 1.3.3 1.7.8.4.5.6 1.3.6 2.2 0 1-.2 1.8-.7 2.5-.5.6-1.1.9-1.8.9-.3 0-.6-.1-.9-.2s-.5-.3-.7-.6zm-.1-2.5v.5c0 .4.1.8.3 1.1.2.3.5.4.8.4.4 0 .7-.2.9-.5.2-.3.3-.8.3-1.5 0-.6-.1-1-.3-1.3s-.5-.4-.9-.4-.7.2-.9.5c-.1.3-.2.7-.2 1.2zm6.1-3.7c-.3 0-.5-.1-.7-.3-.2-.2-.3-.4-.3-.7 0-.3.1-.5.3-.7.2-.2.4-.3.7-.3s.5.1.7.3c.2.2.3.4.3.7 0 .3-.1.5-.3.7-.1.2-.4.3-.7.3zm.8 7h-1.6v-6.2h1.6v6.2zm5-.1c-.2.1-.4.1-.6.2-.2 0-.4.1-.6.1-.6 0-1-.2-1.3-.5-.3-.3-.5-.8-.5-1.4v-3.1h-.9v-1.3h.9v-1.4l1.6-.5v1.9h1.3v1.3h-1.3v2.9c0 .3 0 .4.1.5.1.1.2.2.4.2h.3c.1 0 .2-.1.2-.1l.4 1.2zm5.5.1h-1.5v-.9c-.2.3-.4.6-.7.8-.3.2-.6.3-.9.3-.5 0-.9-.2-1.2-.5-.3-.3-.5-.8-.5-1.4 0-.6.2-1 .5-1.4.3-.4.9-.6 1.6-.7l1.4-.2v-.1c0-.3-.1-.6-.3-.7-.2-.2-.4-.2-.7-.2-.2 0-.5 0-.8.1-.3.1-.6.2-.8.4l-.6-1.1c.4-.2.7-.4 1.1-.5.4-.1.8-.2 1.2-.2.8 0 1.4.2 1.8.6.4.4.6 1.1.6 1.9v3.8zm-1.5-2.5v-.4l-1 .2c-.3 0-.5.1-.7.3-.1.1-.2.3-.2.6 0 .2.1.4.2.6.1.1.3.2.6.2s.6-.1.8-.4c.2-.4.3-.7.3-1.1zm3 2.5v-8.9h1.6v8.9h-1.6z"></path></g></svg> 