<?xml version="1.0" encoding="UTF-8"?> <svg xmlns="http://www.w3.org/2000/svg" xmlns:xlink="http://www.w3.org/1999/xlink" version="1.1" id="Слой_1_xA0_Изображение_00000061457225008809024340000017491661296496545170_" x="0px" y="0px" viewBox="0 0 600 664.4" style="enable-background:new 0 0 600 664.4;" xml:space="preserve"> <style type="text/css"> .st0{fill:#496937;} .st1{fill:#E7632A;} </style> <image style="display:none;overflow:visible;" width="4463" height="5492" id="Слой_1_xA0_Изображение" transform="matrix(0.24 0 0 0.24 -258 -362.7808)"> </image> <path class="st0" d="M189.6,137.5c1.8-1.4,0.1-4.2-2-3.3C118,171.6-24.1,378,100,540.2c106.5,153.2,328.1,115.3,402.1,12 c-36.5-28.8-73-57.6-109.6-86.4C217.6,605.2-34.5,329.2,189.6,137.5z"></path> <path class="st1" d="M233.8,267.9v74.7c0,2,0.9,3.8,2.4,5.1l266.2,204.4c4.4-5.9,39.7-59.8,31.6-68.3 C530.6,485.5,236.2,257.2,233.8,267.9z"></path> <path class="st1" d="M232.8,128.1c0,0,0,63,0,63c98.3,82.8,209,156.9,311.4,236.8c5.4,4.4,5.8-20,6.5-24.5c0.6-13-0.6-24.4-2.3-33.5 c-97.2-86.4-209.6-161.2-311.8-243.6C235.1,125.1,232.8,126.1,232.8,128.1z"></path> <path class="st1" d="M232.8,21.4c0,0,0,54.6,0,54.6C231,83.1,535,300.2,537.4,304.9c1.5,1.1,3.5-0.3,3.1-2 c-6.8-28.9-25.9-70.4-48.9-90.1C456,182.3,276.6,50.4,236,19.9C234.7,18.9,232.8,19.8,232.8,21.4z"></path> </svg> 