<?xml version="1.0" encoding="utf-8"?>
<!-- Generator: Adobe Illustrator 28.0.0, SVG Export Plug-In . SVG Version: 6.00 Build 0)  -->
<svg version="1.1" id="Слой_1" xmlns="http://www.w3.org/2000/svg" xmlns:xlink="http://www.w3.org/1999/xlink" x="0px" y="0px"
	 viewBox="0 0 210 146.3" style="enable-background:new 0 0 210 146.3;" xml:space="preserve">
<style type="text/css">
	.st0{fill:url(#SVGID_1_);}
	.st1{display:none;fill:#FF7B8C;}
	.st2{fill:#FC4263;}
	.st3{fill:url(#SVGID_00000011745151375030363000000007190266586655487104_);}
	.st4{fill:url(#SVGID_00000017493485199978034490000005608664685148673678_);}
	.st5{fill:url(#SVGID_00000045607215872246528760000001498674726333235879_);}
	.st6{fill:url(#SVGID_00000023265373662204421290000017541598310052042656_);}
	.st7{fill:url(#SVGID_00000141454181583740828580000003813232022021276829_);}
	.st8{fill:url(#SVGID_00000179613557745375838820000015344513702222470827_);}
	.st9{fill:url(#SVGID_00000023964684868824966110000014709552671474531465_);}
	.st10{fill:url(#SVGID_00000166650771965515189790000009000555253438283446_);}
	.st11{fill:#FF7B8C;}
	.st12{display:none;fill:url(#SVGID_00000176037747403010328640000012828132488205938073_);}
	.st13{fill:#FEA84C;}
	.st14{fill:#323132;}
	.st15{fill:#FBFBFB;fill-opacity:9.019608e-02;}
	.st16{fill:#FBFBFB;fill-opacity:0.1843;}
	.st17{fill:#FBFBFB;fill-opacity:8.627451e-02;}
	.st18{fill:#FBFBFB;fill-opacity:6.666667e-02;}
	.st19{fill:#FBFBFB;fill-opacity:0.4549;}
</style>
<linearGradient id="SVGID_1_" gradientUnits="userSpaceOnUse" x1="132.2135" y1="80.4161" x2="91.6858" y2="107.4672" gradientTransform="matrix(1 0 0 -1 0 145.11)">
	<stop  offset="0" style="stop-color:#FFD04A"/>
	<stop  offset="1" style="stop-color:#FF867F"/>
</linearGradient>
<path class="st0" d="M141.6,35.5c-3.9-3.1-7.7-2.6-12.7-2.6c-2.4,0-6,0.4-8.1-0.8c-1.6-1-2.4-2.8-2.4-3.9c0,0,0-0.1,0-0.1
	c0.3-1.8,0-4,0-5.9c0-5.1,0.7-9-3.5-13.3c-2.1-2.1-5.1-3.6-8.5-3.9c-3.3-0.3-6.6,0.5-9.2,2.1c-3.3,2.1-5.6,5.3-6,8.6
	c-0.2,1.1-0.2,2.3-0.2,3.6c0,0.1,0,0.2,0,0.3c0,0.2,0,0.3,0,0.5c0,0,0,0,0,0.1c0,0,0,0.1,0,0.1c0,0.1,0,0.2,0,0.2c0,1,0.1,2,0.1,3
	c0,1.3-0.2,3.9,0.1,5.1c0,0,0.2,0.9,0.7,1.2c0.5,0.3,1.3,0.4,1.9,0.3c1-0.1,2.4-0.7,3.3-0.4c0,0,0.1,0,0.1,0
	c0.2,0.2,0.2,0.3,0.2,0.5c0,0.6-0.4,1.2-0.9,1.6c-1.1,0.8-2.9,1-4.4,0.9c-1-0.1-3.4-0.6-4.2,0c-0.3,0.2-0.4,0.4-0.4,0.7
	c0,1.4,1.4,2.7,2.7,3.6c1.2,0.8,2.6,1.6,3.9,2.3c1.4,0.7,5.8,2.6,6.7,3.7c0,0,0,0.1,0,0.1l0,0c0,0.1,0,0.2-0.1,0.2
	c-0.4,0.3-1.1,0.3-1.6,0.3c-2.5,0-4.5-1.3-6.6-2.2c0,0,0,0,0,0c-0.7-0.3-1.4-0.7-2.3-0.5c-0.2,0-0.4,0.1-0.5,0.3
	c-0.2,0.2-0.1,0.6,0,0.9c0.1,0.1,0.1,0.1,0.1,0.2c0,0,0,0,0.1,0.1c1.8,2,10.6,2.8,11.7,4c0.1,0.1,0.1,0.2,0,0.3
	c-0.1,0.1-0.2,0.2-0.4,0.3c-1.9,0.8-5.5,0.3-7.4-0.3c-1.1-0.3-2.1-0.8-3.1-1.3c-0.5-0.2-1-0.6-1.6-0.7c-0.2-0.1-0.3-0.1-0.5,0
	c0,0,0,0-0.1,0c-0.2,0.1-0.3,0.1-0.4,0.3c0,0,0,0.1,0,0.1c0,0.4,0.1,0.6,0.5,0.9c2,1.6,9.5,2.6,10.9,3.3c0.1,0,0.1,0.1,0.1,0.2
	c0,0,0,0.1-0.1,0.1c-0.9,0.6-5.4,0.1-6.6-0.1c-0.8-0.2-1.6-0.4-2.3-0.6c-1.1-0.4-2.6-1.4-3.8-1.3c0,0-0.1,0-0.1,0
	c-0.1,0.1-0.2,0.1-0.3,0.3c0,0.1,0,0.1,0,0.2c0.1,0.3,0.3,0.5,0.6,0.7c1.2,0.7,4.9,1.5,5.9,2.2c0.1,0.1,0.1,0.3,0,0.4
	c-0.1,0.1-0.3,0.1-0.5,0.1c-1.9,0.3-4.3-0.2-5.9-1c-0.5-0.3-1-0.7-1.4-1c0,0,0,0,0,0c-4.4-3.9-4.7-9.4-8.5-12.9
	c-1.1-1.1-2.6-1.8-4.4-1.9c-2-0.1-3.5,0.7-4.9,1.7c0,0,0,0,0,0c-3.3,3-4.4,7.2-4.1,11.1c0.3,3.8,2.1,7.9,5.7,10.5
	c3.6,2.6,7.2,2.2,11.8,2.2c1.7,0,3.6,0.1,5.3,0c0,0,0.1,0,0.1,0c0,0,0,0,0,0c1.4,0.1,2.6,0.5,3.6,1.4c1.5,1.4,1.4,3.5,1.4,5.2l0,6.1
	c0,1.4-0.1,2.8,0.1,4.2c0.4,3,2.1,6.1,4.8,8.2c2.3,1.9,5.5,3.1,8.9,3c3.4,0,6.7-1.4,9-3.3c3.5-2.9,4.6-6.1,4.6-10.1
	c0-1.7,0.2-9.7-0.1-10.5c-0.2-0.6-0.9-1.1-1.6-1.4c-1.9-0.8-3.5-0.1-5.4,0.3c-0.6,0.1-1.2,0.2-1.7,0c0,0,0,0-0.1,0
	c-0.2-0.2-0.2-0.3-0.2-0.5c-0.1-0.5,0.5-1.1,0.9-1.5c1.1-1.1,3.2-1.6,4.9-1.6c1.2,0,2.4,0.2,3.6,0c0.6-0.1,1.2-0.3,1.6-0.7
	c0.3-0.4,0.3-0.9,0.2-1.3c-1.1-4.3-11.3-6.8-15.4-9c-0.4-0.2-0.9-0.5-1-0.8c0-0.1,0-0.1,0-0.2c0-0.1,0.1-0.1,0.2-0.2
	c0.5-0.3,1.4-0.3,2-0.4c2.8-0.1,5,0.9,7.4,1.9c0.8,0.3,1.7,0.7,2.6,0.8c0.4,0,0.7,0,1-0.2c0,0,0.1,0,0.1-0.1c0.2-0.3,0.3-0.6,0.2-1
	c-0.6-2.3-8.2-3.2-10.7-3.6c-1-0.2-2.5-0.3-3.4-0.7c-0.2-0.1-0.3-0.3-0.4-0.5c0,0,0-0.1,0-0.1c0.1-0.2,0.3-0.4,0.6-0.5
	c2.8-1.3,7.2-0.3,10,0.5c1.3,0.4,2.7,1,4.1,1.3c0.4,0.1,0.8,0.2,1.2,0c0,0,0.1-0.1,0.1-0.1c0.1-0.2,0.1-0.4,0-0.7
	c-0.8-1.7-9.9-2.5-12.3-3.2c-0.3-0.1-0.7-0.2-0.9-0.5c-0.1-0.1-0.1-0.2,0-0.3c0.1-0.1,0.2-0.1,0.4-0.2c0.7-0.2,1.5-0.2,2.1-0.3
	c4-0.3,7.7,0.7,11.2,2.1c0.4,0.1,0.7,0.2,1,0.2c0,0,0.1,0,0.1-0.1c0.1-0.1,0.2-0.2,0.2-0.3c0-0.3-0.2-0.6-0.4-0.9
	c-1.6-2-5.6-1.3-7.2-2.4c0,0-0.1-0.1-0.1-0.1c0-0.1-0.1-0.1,0-0.2c0.1-0.2,0.5-0.4,0.8-0.5c1.1-0.4,2.6-0.3,3.8-0.1
	c10.3,1.6,11.1,16.7,19.2,19.2c1.6,0.5,3,0.3,4.5-0.2c0,0,0,0,0,0c0.5-0.2,1-0.5,1.4-0.8c3-2.3,3.3-6.5,3.3-9.7
	C146.6,41.9,145,38.2,141.6,35.5z"/>
<path class="st1" d="M67.4,36.4c1.4-1,2.9-1.8,4.9-1.7c1.8,0.1,3.3,0.9,4.4,1.9c3.8,3.5,4.2,9,8.5,12.9c-0.3,0-0.4,0.1-0.6,0.2
	l-0.2,0.4c-0.3,0.1-0.4,0.1-0.7,0c0,0-0.1,0-0.1,0c-0.7,0.2-0.8,0.9-1.3,1l0.1-0.3l-0.1-0.1l-0.2,0c0,0.1-0.1,0.2-0.1,0.3l-0.3,0
	c-0.6,1.7,0.1,1.1-1.6,2.5l-0.7-0.1c-0.3,0.2,0,0.4-0.3,0.4l-0.1-0.3c-0.3,0.1-0.3,0.2-0.5,0.3c-0.3,0.1-1.1,0-1.5,0.1
	c-0.2,0-0.2,0-0.4,0L76.2,54l0.1,0.2l-0.3,0.3l-0.1,0c-0.3-0.3-0.5-0.7-0.9-0.9l-0.2,0.1c1.3,2.2,3,4.5,4.9,6.4
	c1.1,0.1,2.2,0.1,3.4,0.1c1.1,0,2.1,0,3.1-0.1c0,0-0.1,0-0.1,0c-1.7,0.1-3.5,0-5.3,0c-4.5,0-8.1,0.4-11.8-2.2
	c-3.6-2.6-5.4-6.7-5.7-10.5C63.1,43.6,64.2,39.3,67.4,36.4z"/>
<path class="st2" d="M67.4,36.4c-0.1,0.9,0.3,1.9,0.6,2.8c1.3,4.5,3.3,8.8,5.7,12.9c0.3,0.5,0.6,1.2,1,1.6c0.6,1,1.4,2.1,2.3,3.3
	c0.9,1.2,1.9,2.3,2.7,3.2c1.1,0,2.2,0,3.4,0c1.1,0,2.1,0,3.1-0.1c0,0-0.1,0-0.1,0c-1.7,0.1-3.5,0-5.3,0c-4.5,0-8.1,0.4-11.8-2.2
	c-3.6-2.6-5.4-6.7-5.7-10.5C63.1,43.6,64.2,39.3,67.4,36.4z"/>
<linearGradient id="SVGID_00000121961117685247911040000000282324431072554152_" gradientUnits="userSpaceOnUse" x1="85.4222" y1="121.2824" x2="108.0915" y2="105.8639" gradientTransform="matrix(1 0 0 -1 0 145.11)">
	<stop  offset="0" style="stop-color:#FA3E5C"/>
	<stop  offset="1" style="stop-color:#FF6958"/>
</linearGradient>
<path style="fill:url(#SVGID_00000121961117685247911040000000282324431072554152_);" d="M91.2,28c0-0.2,0-0.3,0-0.5
	C91.1,27.6,91.1,27.8,91.2,28C91.2,28,91.2,28,91.2,28z"/>
<linearGradient id="SVGID_00000114759442678979858950000009899466326095794876_" gradientUnits="userSpaceOnUse" x1="85.1971" y1="120.9515" x2="107.8664" y2="105.533" gradientTransform="matrix(1 0 0 -1 0 145.11)">
	<stop  offset="0" style="stop-color:#FA3E5C"/>
	<stop  offset="1" style="stop-color:#FF6958"/>
</linearGradient>
<path style="fill:url(#SVGID_00000114759442678979858950000009899466326095794876_);" d="M91.2,28c0,0.2,0.1,0.4,0.1,0.6
	C91.2,28.4,91.2,28.2,91.2,28z"/>
<linearGradient id="SVGID_00000179606572112915048230000000508828347980872326_" gradientUnits="userSpaceOnUse" x1="88.4677" y1="125.7931" x2="111.1369" y2="110.3746" gradientTransform="matrix(1 0 0 -1 0 145.11)">
	<stop  offset="0" style="stop-color:#FA3E5C"/>
	<stop  offset="1" style="stop-color:#FF6958"/>
</linearGradient>
<path style="fill:url(#SVGID_00000179606572112915048230000000508828347980872326_);" d="M91.1,20.5c0,0.5,0,0.9,0,1.4c0,0,0,0,0,0
	C91.2,21.3,91.1,20.9,91.1,20.5C91.1,20.4,91.1,20.5,91.1,20.5z"/>
<linearGradient id="SVGID_00000085224738891623061480000004582582708283134872_" gradientUnits="userSpaceOnUse" x1="94.2493" y1="134.2605" x2="116.9185" y2="118.842" gradientTransform="matrix(1 0 0 -1 0 145.11)">
	<stop  offset="0" style="stop-color:#FA3E5C"/>
	<stop  offset="1" style="stop-color:#FF6958"/>
</linearGradient>
<path style="fill:url(#SVGID_00000085224738891623061480000004582582708283134872_);" d="M118.7,26.6c0,0.6-0.1,1.1-0.1,1.6
	C118.6,27.7,118.6,27.2,118.7,26.6z"/>
<linearGradient id="SVGID_00000173876151064183711270000000834693719534117562_" gradientUnits="userSpaceOnUse" x1="86.175" y1="122.3885" x2="108.8443" y2="106.97" gradientTransform="matrix(1 0 0 -1 0 145.11)">
	<stop  offset="0" style="stop-color:#FA3E5C"/>
	<stop  offset="1" style="stop-color:#FF6958"/>
</linearGradient>
<path style="fill:url(#SVGID_00000173876151064183711270000000834693719534117562_);" d="M91.1,27.5c0-0.2,0-0.3,0-0.3
	c0-0.8,0-1.6,0-2.4c0,0,0,0,0,0C91.1,25.6,91.1,26.6,91.1,27.5z"/>
<linearGradient id="SVGID_00000031166011286387224410000010554940864037596813_" gradientUnits="userSpaceOnUse" x1="95.0648" y1="135.4595" x2="117.734" y2="120.041" gradientTransform="matrix(1 0 0 -1 0 145.11)">
	<stop  offset="0" style="stop-color:#FA3E5C"/>
	<stop  offset="1" style="stop-color:#FF6958"/>
</linearGradient>
<path style="fill:url(#SVGID_00000031166011286387224410000010554940864037596813_);" d="M118.6,24.8L118.6,24.8c0,0.6,0,1.3,0,1.9
	c0,0,0,0,0,0C118.7,25.9,118.7,25.3,118.6,24.8z"/>
<linearGradient id="SVGID_00000158714537978734078950000014262426646830970764_" gradientUnits="userSpaceOnUse" x1="95.6796" y1="136.3634" x2="118.3488" y2="120.9449" gradientTransform="matrix(1 0 0 -1 0 145.11)">
	<stop  offset="0" style="stop-color:#FA3E5C"/>
	<stop  offset="1" style="stop-color:#FF6958"/>
</linearGradient>
<path style="fill:url(#SVGID_00000158714537978734078950000014262426646830970764_);" d="M115,8.9c-2.1-2.1-5.1-3.6-8.5-3.9
	c-3.3-0.3-6.6,0.5-9.2,2.1c-3.3,2.1-5.6,5.3-6,8.6c-0.1,1-0.2,2.1-0.2,3.3c5.6-0.4,13.5-0.2,22,3.2c2,0.8,3.9,1.7,5.6,2.6
	c0-0.9-0.1-1.7-0.1-2.5C118.6,17.1,119.3,13.2,115,8.9z"/>
<linearGradient id="SVGID_00000072999163677284179370000002236998756406993311_" gradientUnits="userSpaceOnUse" x1="87.4887" y1="124.3208" x2="110.158" y2="108.9023" gradientTransform="matrix(1 0 0 -1 0 145.11)">
	<stop  offset="0" style="stop-color:#FA3E5C"/>
	<stop  offset="1" style="stop-color:#FF6958"/>
</linearGradient>
<path style="fill:url(#SVGID_00000072999163677284179370000002236998756406993311_);" d="M91.2,24.7c0-0.5,0-1,0-1.3
	c0-0.5,0-1,0-1.5C91.2,22.7,91.2,23.6,91.2,24.7z"/>
<path class="st11" d="M91.2,66.7c0,0.8,0,1.6,0,2.4c6.6,3.4,13.6,5.4,21.4,5.8c1.9,0.1,4,0.2,5.9,0c0,4-1.1,7.1-4.6,10.1
	c-2.3,1.9-5.6,3.3-9,3.3c-3.3,0-6.5-1.2-8.9-3C93.4,83,91.6,80,91.3,77c-0.2-1.4-0.1-2.8-0.1-4.2L91.2,66.7z"/>
<linearGradient id="SVGID_00000011031816778412200680000015677311672183334529_" gradientUnits="userSpaceOnUse" x1="104.0512" y1="114.0447" x2="89.1716" y2="123.6068" gradientTransform="matrix(1 0 0 -1 0 145.11)">
	<stop  offset="0" style="stop-color:#FF897B"/>
	<stop  offset="1" style="stop-color:#FF788C"/>
</linearGradient>
<path style="display:none;fill:url(#SVGID_00000011031816778412200680000015677311672183334529_);" d="M91.3,18.9
	c7.5-0.7,15.1,0.4,21.8,3.2l-0.2,0.1c-0.7-0.1-1.7-0.5-2.3-0.4c-0.2,0.2-0.3,0.3-0.4,0.5c-0.5,0.2-1.2,0.5-1.4,1
	c-0.1,0.3,0,1-0.2,1.2l-0.1,0c-0.4,0-0.8-0.1-1.1,0.1c-0.2,0.1-0.1,0.2-0.1,0.4c0,0.4,0,0.4-0.3,0.8l0.2,0.1c-0.5,0.3-1.4,0.3-2,0.6
	c-0.7,0.4-0.9,1.3-1.7,1.6c-0.1,0-0.2,0.1-0.3,0.1c-0.1,0-0.2,0.1-0.3,0.1c0,0.3,0,0.7-0.2,0.9c-0.6,0.2-1.1,0.9-1.5,1.2
	c0,0,0,0.1,0.1,0.1c0.1,0.2,0.1,0.1,0.1,0.3c-0.1,0-0.1-0.1-0.2-0.1c-0.1,0-0.1,0-0.2-0.1c0,0.2,0,0.3-0.2,0.5l-0.4,0.1
	c-0.1,0.2-0.3,0.3-0.4,0.5c-0.3,0.4-0.8,0.7-1.2,1c-0.1-0.1-0.1-0.1-0.2-0.3c-0.2,0.1-0.2,0.1-0.3,0.3l0.4,0.1l0.1,0.2l-0.1,0
	l-0.1,0c-1.1,1.1-0.5,1.1-1.1,2.1l0.1,0.2c-0.2,0-0.1,0-0.4,0c-0.4,0.4-0.8,0.6-1,1.1L96,36.4l0.2,0.1L96,36.4l0.1,0l-0.1,0
	c-0.1,0.3,0,0.5,0.2,0.8l0,0.2c-0.1-0.1-0.2-0.1-0.3-0.2c-0.1,0.2-0.1,0.1,0,0.3l-0.1,0.1c-0.3,0-0.2-0.3-0.6-0.2c0,0,0,0.1,0,0.1
	c-0.1,0.3-0.2,0.4-0.5,0.6l-0.3-0.1c-0.1,0.4-0.1,0.8-0.1,1.2c-1.4-0.7-2.7-1.4-3.9-2.3c-1.3-0.9-2.7-2.2-2.7-3.6
	c0-0.3,0.1-0.5,0.4-0.7c0.8-0.6,3.2-0.1,4.2,0c1.4,0.1,3.3-0.1,4.4-0.9c0.5-0.4,0.9-1,0.9-1.6c0-0.2-0.1-0.4-0.3-0.5
	c-1-0.4-2.3,0.3-3.4,0.4c-0.6,0-1.4,0-1.9-0.3c-0.4-0.3-0.6-0.8-0.6-1.2c-0.1-0.6-0.1-1.4-0.1-2.4c0-0.1,0-0.1,0-0.2
	c0-0.7,0-1.1,0-1.3c0-0.7,0-1.7,0-2.7C91.2,21.3,91.2,20.2,91.3,18.9z"/>
<path class="st13" d="M129,32.9c5,0,8.8-0.5,12.7,2.6c3.4,2.7,4.9,6.4,4.9,10.2c0,3.2-0.4,7.3-3.3,9.7c-0.4,0.3-0.9,0.6-1.4,0.9
	c0-0.1,0-0.1,0-0.2c0.1-1-0.3-2.1-0.6-3c-1.7-5.5-4.7-10.7-8.4-15.5C132.2,36.6,129.2,33.4,129,32.9z"/>
<path class="st1" d="M90.1,42.4c-0.1-0.1-0.1-0.1-0.1-0.2c-0.1-0.2-0.2-0.6,0-0.9c0.1-0.2,0.3-0.3,0.5-0.3c0.8-0.2,1.6,0.1,2.3,0.5
	c-0.7,0-1.8-0.2-2.3,0.2l0,0.2C90.2,42,90.2,42.2,90.1,42.4z"/>
<path class="st14" d="M93.5,99c0.1,0,0.2,0,0.3,0c0.3,0,0.3,0.1,0.5,0.3c0,1-2.3,4.4-2.9,5.5l0.4,0c0.9,0,1.6,0.1,2.4,0.5
	c1,0.5,1.5,1.3,1.7,2.2c0.8,3.3-2.1,6.9-4.3,9.6c1.4-0.4,2.6-0.9,3.9-1.4c0.2,0,0.2,0,0.4,0.2c0,0.4-0.4,0.7-0.7,0.9
	c-1.9,1.5-6.3,3.7-8.9,4.2c-1.5,0.3-3.1,0.2-4.7,0.1c-1.1,1-2.2,3.1-3,4.4c-1.4,2.2-9.8,15.1-11.4,15.8c-0.3,0.1-0.3,0.1-0.6,0
	c-0.4-0.3-0.5-0.5-0.7-0.9c-1.9-5.2,5.1-16.2,8.2-20.7c-0.6-0.4-1-0.8-1.4-1.3c-1.2-1.9-0.7-4.4,0.1-6.3c-0.9,0.7-1.6,1.5-2.4,2.3
	c-1.6,1.5-5.2,5.1-7.3,5.8c-0.6,0.2-1.3,0.3-1.9,0c-0.6-0.2-1.1-0.7-1.3-1.2c-0.9-1.8,0.3-4.8,1.2-6.5c-3.5,2.4-6.3,6.2-10.9,7.3
	c-0.7,0.2-1.8,0.1-2.5,0c-1.1-0.3-1.9-0.8-2.4-1.6c-1.2-2-0.5-5,0.4-7c1.3-2.8,4.4-7.4,8-8.6c0.5-0.2,1.1-0.3,1.7-0.1
	c0.7,0.2,1.2,0.8,1.7,1.2c0.4,0.3,0.8,0.4,1.2,0.7c0.2,0.1,0.3,0.3,0.4,0.5c0.2,0.6,0.1,1.2-0.3,1.7c-1.4,2.2-6.7,4.7-9.6,5.4
	l-0.1,0c-0.7,1.1-1.2,2.5-1.3,3.8c-0.1,0.7,0,1.7,0.6,2.2c0.4,0.3,0.9,0.5,1.4,0.5c3.7,0,10.1-6.1,12.1-8.4c1.1-1.3,2.1-2.8,3.4-3.9
	c0.3-0.3,0.5-0.4,1-0.4c0.4,0.1,0.6,0.3,0.9,0.6c0.3,0.4,0.4,0.8,0.2,1.3c-0.2,0.8-0.9,1.6-1.3,2.4c-1.1,1.8-2.2,4-2.7,6
	c-0.1,0.6-0.3,1.4,0.2,2c0.2,0.1,0.2,0.1,0.4,0.1c1.8,0,6.2-4.4,7.3-5.6c0.9-1,1.7-2.3,2.8-3.2c0.2-0.2,0.5-0.4,0.9-0.4
	c0.2,0,0.4,0.1,0.5,0.3c2.1,1.8-0.1,4.3-0.1,6.3c0,0.5,0.2,0.9,0.6,1.3c0.6,0.1,1-0.5,1.3-0.9c2.2-2.9,7.5-8.5,11.4-9.8
	C89.1,104.3,92,100,93.5,99z M85.3,118.9c0.8-0.2,1.7-0.3,2.4-0.6c1.7-0.7,3.5-2.9,4.4-4.3c1.2-1.7,2.6-4.5,1.9-6.4
	c-0.2-0.6-0.7-1.1-1.4-1.4c-0.6-0.3-1.1-0.3-1.8-0.3c-1.7,2.9-3.5,5.7-5.3,8.6c-0.9,1.3-2.5,3.4-3.1,4.7
	C82.9,119.5,84.6,119,85.3,118.9z M85.9,109.4c0.6-0.6,1-1.4,1.4-2.1c-0.9,0.4-1.8,1-2.3,1.7c-3.1,2.5-5.7,5.5-8.1,8.5
	c-3.6,4.7-10.4,15.5-10.3,20.8c0,0.2,0,0.3,0.1,0.5l0.1,0c0.7-0.5,1.6-2.3,2.1-3c2.1-3.2,4.2-6.3,6.2-9.5c1.3-2.1,2.5-4.1,3.8-6.2
	l4.9-7.6C84.5,111.4,85.4,110.4,85.9,109.4z M49.7,109.6l1.4-0.3c1.6-0.6,5-2.2,5.6-3.6c0.1-0.3,0.1-0.4-0.1-0.6
	c-0.4-0.2-0.8-0.3-1.3-0.3C53,105.3,51,108.1,49.7,109.6z"/>
<path class="st15" d="M87.3,107.2c-0.4,0.7-0.8,1.5-1.4,2.1c0.1-0.4,0.5-0.8,0.4-1.2c-0.5,0.1-0.9,0.5-1.3,0.7
	C85.6,108.2,86.5,107.7,87.3,107.2z"/>
<path class="st14" d="M29,82.7c1.2-0.1,2.3-0.1,3.4,0.3c1.2,0.5,2,1.4,2.4,2.4c2.3,5.2-2.8,11.2-5.5,15.8c2.7-0.5,5.4-1.1,8.1-1.2
	c2-0.1,4,0,6,0c0.9-1.5,7.7-10.4,8.9-10.8c0.3-0.1,0.4-0.1,0.6,0c0.3,0.2,0.4,0.4,0.5,0.7c0.2,0.8-0.2,1.8-0.6,2.6
	c-0.7,1.3-1.8,2.4-2.8,3.5l-3.6,4.3c1,0.1,2.2,0.1,3.1,0.4c0.2,0.1,0.2,0.1,0.3,0.3l-0.1,0.2c-1,0.4-2.7,0-3.8,0l-0.2,0
	c-3.4,4.2-6.7,8.4-9.3,13c1.5-0.9,2.7-2.5,4.1-3.3c0.2-0.1,0.4-0.1,0.6-0.1c0.1,0.1,0.1,0.1,0.1,0.2c-0.2,0.8-1.8,2-2.4,2.7
	c-1.3,1.4-2.4,3-3.7,4.4c-0.2,0.3-0.6,0.5-0.9,0.7c-0.3,0.1-0.5,0.1-0.8,0c-0.3-0.2-0.4-0.5-0.5-0.8c-0.8-2.8,7.8-14.3,9.9-17
	c-4.9-0.3-9.7,0.5-14.3,1.5c-3,3.7-5.7,7.7-8.7,11.4l-6.1,8.1c0.3,0.6,0.6,1.2,0.3,1.8c-0.5,1-5.9,5.8-6.9,6c-0.3,0.1-0.6,0-0.8-0.1
	c-0.5-0.2-1-0.7-1.1-1.2C5,128.4,5,128.1,5,128c0.3-0.6,1.2-1.3,1.7-1.9c1.5-1.7,2.8-3.5,4.2-5.3c4.4-5.6,8.6-11.3,12.7-17.1
	c-0.9,0.2-1.9,0.4-2.8,0.7c-2.3,0.7-5.6,2-8,1.6c-0.3-0.1-0.6-0.2-0.8-0.5c-0.2-0.2-0.2-0.4-0.1-0.7c0.4-0.7,1.6-0.5,2.3-0.4
	c0.3,0,0.6,0.1,0.9,0c1.1-0.1,2.2-0.5,3.3-0.8c2.1-0.5,4.3-1,6.4-1.7c2.3-3.3,8.7-12.5,8.9-15.8c0-0.5-0.2-1-0.6-1.3
	c-0.6-0.5-1.5-0.6-2.3-0.6c-4,0-12.8,3.8-15.6,6.2l0,1.2c-0.9,1-4.5,3.6-5.7,4c-0.3,0.1-0.4,0.1-0.6,0c-0.5-0.2-1.4-1.2-1.6-1.7
	c-0.1-0.3,0-0.5,0.2-0.7c2.8-3.3,12.4-8.1,17.1-9.6C26.1,83.3,27.5,82.9,29,82.7z"/>
<path class="st14" d="M179,114.6c-0.2,0.2-0.3,0.4-0.5,0.5c-1.6,1.6-5.3,5.2-7.9,5.4c-0.4,0-0.8,0-1.1-0.3c-0.5-0.4-0.6-1.1-0.6-1.7
	c0-1.3,0.4-2.6,0.8-3.8c1.4-3.9,3.8-8,7.4-11.1c1.3-1.1,3.2-2.3,5.3-2.3c0.7,0,1.3,0.2,1.8,0.6c0.3,0.3,0.8,0.9,0.8,1.3
	c-0.4,0.3-1.7-0.4-2.4-0.2c-3,0.7-7.2,6.3-8.7,8.6c-0.9,1.4-3.7,5.7-3.2,7.1c0.2,0.2,0.3,0.2,0.6,0.2c1.1,0,2.7-1.3,3.5-1.9
	c2.9-2.3,6.4-6,8.2-9c1.7-2.8,2.9-5.7,4.4-8.6c1.2-2.4,2.6-4.9,4-7.3c1.5-2.5,3.2-5.2,5.5-7.4c0.9-0.8,2.3-1.9,3.7-2
	c0.5,0,1,0.1,1.3,0.4c1.1,0.9,1.1,2.8,1.1,4c0.5-0.2,0.9-0.5,1.5-0.5c0.3,0,0.3,0,0.5,0.2c0,0.8-1.4,1.2-2,1.8
	c-0.5,0.5-0.9,1.2-1.3,1.8c-0.5-0.5-1-0.9-1.4-1.5c0.6-1.4,1.9-2.7,1.5-4.2c-0.1-0.4-0.2-0.7-0.6-0.9c-0.2,0-0.3,0-0.5,0
	c-0.8,0.2-1.5,1.1-2,1.6c-3.7,4.2-5.8,9.3-8.2,14.1c-0.9,1.9-1.9,3.7-2.9,5.6c-0.4,0.7-0.8,1.4-1.1,2.1c0.5-0.4,1.1-0.9,1.4-1.3
	c1.5-1.4,4.6-4.4,7-4.6c0.4,0,0.8,0,1.1,0.3c0.6,0.4,0.7,1.1,0.7,1.6c0.1,4.5-4.4,11.6-8.2,14.7c-1.4,1.2-3.2,2.5-5.4,2.5
	c-0.6,0-1.1-0.1-1.6-0.3c-0.5-0.4-0.9-0.9-0.9-1.5c0-0.1,0-0.1,0-0.2c0.6-0.2,1.6,0.7,2.6,0.3c3.1-1,7.7-7.4,9.2-9.8
	c0.7-1.1,2.8-4.6,2.3-5.6c-0.1-0.1-0.2-0.2-0.3-0.3c-0.7-0.1-1.5,0.4-2.1,0.7c-2.6,1.6-6.5,5.4-8.2,7.7c-0.9,1.2-1.4,2.6-2.1,3.8
	c-1.3,2.3-2.6,4.6-3.9,6.8c-2.1,3.7-4.6,8.2-8.6,10.9c-0.8,0.6-1.7,1.2-2.8,1c-0.7-0.1-1.3-0.6-1.7-1c-1.3-1.6-1-4-0.5-5.8
	c0.4-1.4,1.2-3.6,2.6-4.6l0.2,0c0.2,0.1,0.2,0.2,0.3,0.4c0.1,0.6-0.8,1.7-1,2.4c-0.8,1.9-1.4,3.9-1,5.9c0.1,0.5,0.2,1.1,0.7,1.4
	c0.2,0.2,0.5,0.2,0.9,0.2c1.3-0.2,2.6-1.8,3.2-2.7c3.6-4.6,6.8-11,9.3-16.1c0.3-0.4,0.5-0.8,0.7-1.2c0.1-0.2,0.2-0.3,0.3-0.5
	l-0.1-0.1C180.1,113,179.5,113.9,179,114.6z"/>
<path class="st14" d="M142.5,101.9c0.4,0,0.7,0,1.1,0c0.5,0.1,1.1,0.4,1.4,0.7c1.3,1.7-0.9,4-1.3,5.6c0,0.1,0,0.1,0.1,0.2
	c0.3,0,0.7,0,0.9,0c2.6,0.7-1.4,5.6-0.3,7.2c0.2,0.1,0.2,0.2,0.4,0.2c1.9,0,7-5.6,8.2-7c0.8-1,1.4-2.4,2.6-3.1
	c0.3-0.2,0.5-0.2,0.8-0.2c0.6,0.3,1.1,1.3,1.1,1.8c-0.1,0.6-1,1.8-1.3,2.3c-0.9,1.5-3.5,6.4-2.8,7.7c0.1,0.2,0.2,0.3,0.5,0.4
	c0.7,0.2,1.6-0.5,2.1-0.8c1.3-0.9,2.5-1.9,3.6-3c1.1-1.1,4-4.7,5.2-5.3c0.2,0,0.3,0,0.5,0.1c0.6,0.3,0.9,0.7,1,1.2
	c0.2,0.7,0.2,1.3,0.1,2c-0.2,1.1-1.3,2.9-0.8,3.9c0.3,0.5,1.4,0.6,1.9,0.7c-0.7,0.7-1.2,1.5-1.9,2.2c-0.3,0.3-0.7,0.6-1.1,0.5
	c-0.2,0-0.5-0.1-0.6-0.2c-1-0.8-1.3-2.5-1.3-3.6c0-1.4,0.3-2.4,0.9-3.7c-2.9,2.3-5.9,6.3-9.4,7.9c-0.6,0.3-1.2,0.5-1.9,0.3
	c-0.6-0.1-1.5-0.8-1.8-1.2c-1-1.7,0.6-5.1,1.4-6.8c-1.8,1.5-3.4,3.1-5.3,4.4c-0.7,0.5-1.6,1-2.6,1c-0.4,0-0.7-0.2-1-0.5
	c-1.3-1.6-0.4-4.4,0-6.1c-0.7,0.6-1.5,1.2-2.2,1.8c-1.6,1.3-7.5,7-9.1,7.4c-0.2,0.1-0.4,0.1-0.7-0.1c-0.3-0.2-0.5-0.6-0.6-0.9
	c-0.9-3,2-7.7,3.9-10.3C136,106.2,138.8,102.7,142.5,101.9z M131.5,118.7c0.4-0.2,0.8-0.5,1.2-0.8c2.6-1.9,5-4.1,7.4-6.2
	c0.6-0.6,1.5-1.1,2-1.8c-0.1-0.2-0.4-0.3-0.6-0.4l-0.4-0.2c0.9-0.9,3.5-4.4,3.1-5.4c0-0.1-0.1-0.1-0.1-0.2c-0.2-0.1-0.3-0.1-0.5-0.1
	c-4.3,2.2-10.8,10-12,14.1C131.5,118,131.5,118.4,131.5,118.7z"/>
<path class="st14" d="M106.2,103.4c0.1,0,0.3,0,0.4,0c0.5,0.1,0.8,0.7,1.1,1.1c1.2-0.2,3.1-0.5,4.2,0c1.3,0.7,1.1,2.1,1.3,3.2
	c0.1,0.5,0.4,1,0.5,1.5c-0.3,0.3-1.1,0.3-1.5,0.7c-0.5,0.5-0.8,1.2-1.2,1.8c-1.9,2.5-4.2,4.8-7.2,6.5c-0.4,0.2-0.7,0.3-1.1,0.4
	c-1.2,0.4-2.4,0.5-3.6,0.1c-0.9-0.3-1.5-0.8-1.9-1.6c-0.8-1.6,0-3.6,0.8-5C99.3,109.3,102.7,104.5,106.2,103.4z M100.4,117.9
	c3.1-0.5,6.9-4.3,8.6-6.3c0.7-0.8,1.3-1.6,1.8-2.4c-0.4-0.7-0.9-1.6-0.5-2.3c0.2-0.4,0.7-0.7,0.8-1.1c-0.2-0.2-0.5-0.1-0.8-0.2
	c-3.5,0.6-6.6,3.4-8.5,5.6c-1.1,1.3-3.1,3.9-2.7,5.5c0.1,0.3,0.4,0.8,0.8,0.9C100.1,117.8,100.2,117.8,100.4,117.9z"/>
<path class="st14" d="M110.4,115.6c0.5-0.3,1.1-0.6,1.7-0.6c0.3,0,0.5,0.1,0.6,0.3c0.6,0.8-0.4,2.6,1.1,2.9c0.6,0.1,1.5-0.2,2-0.5
	c2.9-1.8,6-7.3,7.7-10.1c0.8-1.4,1.7-3,3.2-4.1c0.7-0.5,1.4-0.7,2.3-0.6c0.5,0,1.1,0.1,1.4,0.4c0.2,0.2,0.3,0.5,0.2,0.8
	c-0.4,1.5-3,4.4-4,5.8c-1.3,1.8-2.5,3.6-3.2,5.7c-0.2,0.6-0.5,1.4-0.3,2c0.1,0.1,0.1,0.2,0.3,0.2c0.6,0.1,1.5-0.5,1.9-0.8
	c1.5-1.1,2.7-2.4,4-3.7c0.3-0.3,0.8-0.9,1.1-1.1c0.1-0.1,0.2-0.1,0.3-0.1l0.2,0c0.1,0.3,0,0.4-0.2,0.7c-0.5,0.7-1.1,1.3-1.7,1.9
	c-1.6,1.7-3.8,4.3-6.4,4.8c-0.4,0.1-0.8,0.1-1.1-0.1c-0.4-0.2-0.6-0.6-0.6-0.9c-0.5-2.2,0.8-4.3,1.3-6.4c0.6-0.9,1.1-1.9,1.6-2.8
	c0.4-0.6,0.7-1.2,1-1.9c-0.5,0.5-0.9,1-1.2,1.6c-0.7,1-1.4,2.1-2,3.1c-1.4,2.5-4.2,6.1-7.5,7.1c-0.8,0.2-1.9,0.4-2.7,0.1
	c-0.6-0.2-1-0.7-1.2-1.2C109.7,117.3,109.7,116.5,110.4,115.6z"/>
<path class="st14" d="M162.8,96.4c0.2,0.1,0.4,0.1,0.4,0.3c0.1,0.3,0,0.7,0,1c-0.1,1.2,0,2.5,0.9,3.5c1.6-0.1,3.7-0.3,5.2-0.8
	c0.5-0.2,1.1-0.6,1.6-0.6c0.2,0,0.2,0,0.3,0.1c0.1,0.1,0.1,0.2,0,0.4c-0.2,0.6-1.2,0.9-1.7,1.2c-1.3,0.5-2.7,0.9-4.1,1.4
	c-0.7,0.3-1.5,0.6-2.3,0.8c-0.4-0.1-0.6-0.2-0.8-0.4c-0.8-0.8-0.8-2.2-0.7-3.2C161.7,99,161.8,97,162.8,96.4z"/>
<path class="st14" d="M72.1,96.3c0.2,0,0.4,0.1,0.5,0.2c0.3,0.4-0.5,3.3,0.7,4.3c0.2,0.2,0.3,0.2,0.6,0.3c0.9,0.1,3.2-0.4,4.2-0.7
	c0.7-0.2,1.7-0.7,2.4-0.7c0.2,0,0.1,0,0.3,0.1c0,0,0,0.1,0,0.1c-0.2,0.6-1.1,1-1.7,1.4c-0.2,0.1-0.4,0.1-0.6,0.2
	c-1.2,0.5-4.3,1.5-5.5,1.7c-0.3,0.1-0.7,0.1-1.1,0c-0.4-0.1-0.6-0.4-0.7-0.7C70.7,101.2,71.3,97.6,72.1,96.3z"/>
<path class="st16" d="M123.5,109.2l0.2,0.3c-0.5,0.9-1,1.9-1.6,2.8l-0.6,0C122.1,111.3,122.8,110.2,123.5,109.2z"/>
<path class="st17" d="M179,114.6c0.5-0.7,1.1-1.6,1.9-2.1l0.1,0.1c-0.1,0.2-0.2,0.3-0.3,0.5c-0.2,0.4-0.4,0.8-0.7,1.2
	C179.6,114.3,179.3,114.5,179,114.6z"/>
<path class="st18" d="M187.6,105.2c0,0.3-0.1,0.5,0.1,0.7l0.2,0.1c-0.3,0.5-1,1-1.4,1.3C186.9,106.6,187.2,105.9,187.6,105.2z"/>
<path class="st19" d="M123.5,109.2c0.3-0.6,0.8-1.1,1.2-1.6c-0.3,0.6-0.6,1.3-1,1.9L123.5,109.2z"/>
</svg>
