<?xml version="1.0" encoding="utf-8"?>
<!-- Generator: Adobe Illustrator 28.0.0, SVG Export Plug-In . SVG Version: 6.00 Build 0)  -->
<svg version="1.1" id="Слой_1" xmlns="http://www.w3.org/2000/svg" xmlns:xlink="http://www.w3.org/1999/xlink" x="0px" y="0px"
	 viewBox="0 0 250 250" style="enable-background:new 0 0 250 250;" xml:space="preserve">
<style type="text/css">
	.st0{fill:#7ACCF5;}
	.st1{fill:url(#SVGID_1_);}
	.st2{fill:#5E5B56;}
	.st3{fill:url(#SVGID_00000141452691327687569060000008696283990095091849_);}
	.st4{fill:#42403E;}
</style>
<path class="st0" d="M165.9,143.8c-1.3,2.9-2.9,5.9-4.8,8.5c-1.1,2-2.8,4-4.2,5.7c-6.5,7.8-14.9,13.9-24.3,17.8
	c-3.3,1.4-6.8,2.5-7.1,2.6c-2.7,0.8-5,1.4-6.8,1.8c-1.3,0.1-3.5,0.3-6.2,0.4c-5.7,0.2-15.4,0.4-26.3-3.4c-2.9-1-6.2-2.2-8.8-3.9
	c-1.9-0.7-3.9-2.1-5.6-3.3c-5.7-3.8-10.7-8.5-14.9-14c-1.6-2.1-3.1-4.4-4.7-6.5c0-0.2-0.2-0.4-0.3-0.6c-3.5-7-5.9-14.1-7.5-21.7
	c-0.3-1.3-0.9-3.2-0.7-4.5c-0.4-10.4,0.4-18.5,4-28.3c0.8-2.1,1.7-4.4,2.9-6.3c0.2-0.7,0.7-1.4,1-2c8.5-15.2,22.8-26.3,39.6-30.7
	c12.5-3.4,25.8-2.8,38,1.6c2.5,0.9,5.1,1.9,7.5,3.2c3.1,1.4,6,3.3,8.7,5.3c10.2,7.4,17.9,17.6,22.3,29.4
	C173.7,110.7,173,128.4,165.9,143.8z"/>
<linearGradient id="SVGID_1_" gradientUnits="userSpaceOnUse" x1="143.171" y1="200.0038" x2="153.8672" y2="22.0747">
	<stop  offset="0" style="stop-color:#ACCE32"/>
	<stop  offset="1" style="stop-color:#93C988"/>
</linearGradient>
<path class="st1" d="M216.8,135c-6.8,22.8-21.8,42.2-42.8,53.5c-20.7,11.3-45.1,13.7-67.6,6.8c-10.5-3.1-20.2-8.5-29-15.1
	c19.5,8.6,43.8,8.7,63.6,1c17.3-6.6,31.8-18.9,41.1-34.9c1.3-2.3,2.4-4.6,3.5-7c6.9-17.3,7.7-30.8,3.6-48.9c-0.5-1.3-0.8-2.7-1.3-4
	c-6.6-19.9-21.8-36.3-40.3-45.7c-20.8-10.5-44.4-11.6-66.4-4.4c1.6-1.2,3.5-2.2,5.2-3.3c9-5.3,18.9-9,29.2-10.8
	c23.2-4.1,47.1,1.3,66.3,14.9c14.3,10.1,25.4,24.2,31.9,40.5c1.2,3.1,2.7,6.6,3.3,9.9c1,3.2,1.6,6.4,2.1,9.7
	C221.3,110.5,220.1,122,216.8,135z"/>
<path class="st2" d="M78.8,217.5c4.2,0,10.3-0.4,14.3,0.2c1.5,0.2,3,0.8,3.9,2.1c0.7,1,0.9,2.4,0.7,3.6c-0.4,2-2.3,2.8-3.8,3.8
	c1.4,0.7,3,1.1,3.9,2.6c0.9,1.3,0.8,3,0.5,4.5c-0.3,0.7-0.6,1.2-1.1,1.8c-0.9,0.9-2.1,1.5-3.4,1.9c-2.3,0.6-4.8,0.3-7.1,0.3l-7.9,0
	C78.7,231.3,78.7,224.4,78.8,217.5z M92.7,234.3c0.6-0.7,1-1.3,1-2.3c0-0.8-0.4-1.6-1-2.1c-1.8-1.7-7.1-1.1-9.6-1.1
	c0,2.1-0.1,4.3,0,6.4C86.1,235.2,90.2,235.7,92.7,234.3z M83.2,225.7c2.5,0,7.1,0.6,9.2-0.8c0.5-0.6,0.9-1.4,0.8-2.2
	c-0.1-0.6-0.5-1-0.9-1.3c-2-1.3-6.6-0.9-9-0.9L83.2,225.7z"/>
<linearGradient id="SVGID_00000143594106514122809260000002524368055499516841_" gradientUnits="userSpaceOnUse" x1="49.7107" y1="177.6871" x2="58.2526" y2="35.5966">
	<stop  offset="0" style="stop-color:#ACCE32"/>
	<stop  offset="1" style="stop-color:#93C988"/>
</linearGradient>
<path style="fill:url(#SVGID_00000143594106514122809260000002524368055499516841_);" d="M43.7,94.9c-1.3,8.6-2,19.3,0.1,27.8
	c-0.2,1.3,0.4,3.2,0.7,4.5c1.6,7.7,4,14.7,7.5,21.7c0.1,0.2,0.3,0.4,0.3,0.6c2.5,7.3,11.1,17.9,16.5,23.5c2.2,2.2,4.5,4.1,6.8,6.2
	c-13.8-6.6-26.1-16.1-34.5-29c-0.8-1.2-1.5-2.3-2.3-3.5c-8.4-13.8-12-30-10.3-46.1c0.3-2.2,0.6-4.5,1.1-6.7c0.5-3.3,1.6-6.7,2.8-9.9
	c5.2-14.3,14.5-26.7,26.8-35.8c6.4-4.6,13.3-8.4,20.6-11.3L79.6,37c-1.3,1.2-2.8,2.1-4.1,3.2c-1.6,1.3-3.2,2.7-4.7,4.1
	C56.2,58.4,47,74.8,43.7,94.9z"/>
<path class="st2" d="M168.7,218.4L168.7,218.4c0.7,0.2,1.9,1.9,2.3,2.5c-2.5,0-5,0.3-7.4,0.5c0,1.6,0,3.2,0,4.8l8.2,0l-0.1,2.4
	c-2.6-0.2-5.4,0-8,0c0.1,1.3,0.4,2.7,0.8,4c0.3,0.9,1,2.3,1.9,2.7c0.3,0.1,0.6,0,0.9-0.2c1-0.6,1.3-2.9,1.6-3.9c1,0.5,1.9,0.9,3,1.3
	c-0.5,1.4-0.9,3-1.8,4.2c-0.6,0.8-1.4,1.2-2.4,1.3c-1.4,0.2-3-0.2-4.2-1c-2.1-1.5-2.7-4.5-3.1-6.9l-0.1-1.5c-2.6,0-5.2,0-7.8,0
	c0,2-0.1,3.9-0.2,5.9c2.5-0.5,4.9-1,7.4-1.5c-0.1,0.9-0.2,1.8-0.3,2.7c-3.1,0.4-6.7,1.1-9.6,2.4c-0.6-0.8-1.2-1.5-1.9-2.2l1.1-1.1
	c0.2-4.9,0.5-9.9,0.5-14.8C156,219.6,162.4,219.2,168.7,218.4z M153,222.1c-0.2,1.3-0.2,2.7-0.1,4l2.7,0c1.5,0,3,0,4.5-0.1l0-4.2
	c-1,0-2,0-3,0.1C155.8,222,154.4,221.9,153,222.1z"/>
<path class="st2" d="M36.5,217.5l4.6,0c0,2.8-0.1,5.7,0,8.5l11.7,0c0.2-2.8,0.1-5.7,0.1-8.5l4.5,0c0,2.3,0.2,19.9-0.1,20.7l-0.5,0
	l-3.9,0c-0.2-3,0-6.2,0-9.2c-3.9-0.2-7.8-0.1-11.7,0l0,9.2l-4.5,0c-0.1-2.5,0-5.1,0-7.6C36.4,226.2,36.4,221.8,36.5,217.5z"/>
<path class="st2" d="M205.8,228.6c6.3,0.1,12.6,0.1,18.9,0c-0.1,3.1-0.1,6.2-0.3,9.3l-0.5,0.1c-0.8,0-1.9,0.2-2.5-0.3
	c-0.2-0.1-0.3-0.3-0.5-0.4c-0.9-0.2-11.2-0.2-12,0c0,0.2-0.1,0.3-0.1,0.5c0,0.1,0,0.1,0,0.2c-0.9,0.2-2.1,0.1-3.1,0.1
	C205.7,235.3,206.1,231,205.8,228.6z M208.9,234.6l12.5,0c0-1.2,0-2.4,0-3.7l-12.5,0C208.9,232.2,208.9,233.4,208.9,234.6z"/>
<path class="st2" d="M128.7,218.7c5.2,0.3,10.5,0.1,15.6,0.1c0,4.9-2.7,9.4-5.8,13.1c2,1.4,4.3,2.5,6.6,3.1
	c-0.8,0.9-1.5,1.7-2.3,2.6c-2.3-0.8-4.9-2.2-6.7-3.9c-1.7,1.1-6.1,3.8-7.9,4.1l-0.2-0.3c-0.6-0.8-1.3-1.4-2.1-2.1
	c2.7-0.7,5.4-2.3,7.8-3.8c-2.4-3.5-3.3-5.1-4.7-9.1c1.1-0.2,2.1-0.5,3.2-0.7c0.7,2.8,2,5.5,3.9,7.7c2.4-2,3.9-5.5,4.7-8.4
	c-4-0.2-8.1-0.2-12.1,0C128.7,220.2,128.7,219.4,128.7,218.7z"/>
<path class="st2" d="M175.9,218.8c3.4,0,6.9-0.1,10.3,0c0,0.4,0,0.8-0.1,1.2c-0.1,0.6-0.4,0.9-0.9,1.1c0,0-0.1,0-0.1,0.1
	c-0.5,2.8-0.5,7.7-0.5,10.6l1.5-0.1c-0.1,0.6-0.1,1.6-0.4,2c-0.3,0.3-0.7,0.3-1.2,0.4c-0.1,1.2-0.1,2.4-0.1,3.6c-0.9,0-1.8,0-2.7,0
	c0-1.1,0-2.2,0.1-3.3c-2.1,0.2-4.5,0.6-6.6,1.1c-0.1-0.9-0.3-1.7-0.4-2.6c0.4,0,0.8-0.1,1.2-0.1c0.4-0.7,0.5-10.7,0.3-11.7
	c-0.3-0.1-0.4-0.2-0.6-0.4c-0.3-0.6-0.2-1.2-0.1-1.8L175.9,218.8z M178.8,232.5c1-0.1,2-0.1,3-0.2c0.4-0.5,0.2-1.9,0.3-2.6
	c-1,0-2,0-2.9,0.1C178.7,230.2,178.8,231.9,178.8,232.5z M182,227.8c0.1-0.8,0.1-1.6,0.1-2.4c-1,0-2,0-3,0l0,2.4
	C180,227.8,181,227.8,182,227.8z M179.2,223.4c0.9,0,1.8,0,2.8,0c0.1-0.8,0.1-1.6,0.1-2.4c-0.9,0-1.8-0.1-2.7,0L179.2,223.4z"/>
<path class="st2" d="M196,217.5c1,0.5,1.9,0.8,2.9,1.1c-0.9,1-1.6,2-2.3,3.1c0.9,0,1.8,0,2.6-0.1c0,0.7,0,1.5-0.1,2.2l-5.1,0l0,3.3
	c1.6,0,3.1,0,4.7,0c0.5,0,0.7-0.1,1.1,0.2c0.2,0.4,0.3,0.6,0.2,1c-0.1,0.2-0.2,0.5-0.3,0.7l-0.5,0.1c-1.4-0.3-3.2-0.1-4.6-0.1
	c0.1,0.2,0.1,0.5,0.2,0.7c0.8,2.6,2.7,4.3,5,5.5c-0.7,0.8-1.3,1.7-2,2.5c-1.1-1-2.2-2-3.1-3.2c-0.6-0.8-1.4-3.1-1.9-3.5
	c-0.7,0.2-1.1,2.2-1.5,2.9c-1,1.6-2.3,2.9-3.9,3.9l-0.2,0.1c-0.3-0.4-0.7-0.7-0.9-1.2c-0.3-0.5-0.3-1-0.1-1.5
	c0.3-0.5,0.8-0.9,1.3-1.3c1.7-1.4,2.6-2.9,3.2-5c-1.5,0-3.1,0-4.6,0.1c-0.1-0.7-0.1-1.3-0.1-2c1.7,0,3.4,0,5.1,0
	c0-1.1,0-2.2,0.2-3.3c-1.5,0-3,0-4.5,0c0-0.8,0.2-1.5,0.2-2.3c0.8,0.1,1.6,0.2,2.4,0.2c-0.5-1.2-1.1-2.1-2-3l2.3-1.1
	c0.7,1,1.6,1.9,2.5,2.7c-0.5,0.1-1.1,0.3-1.5,0.6c-0.2,0.2-0.3,0.2-0.3,0.5c0.6,0.6,2,0.4,2.8,0.4
	C194.2,220.3,195.1,218.9,196,217.5z"/>
<path class="st4" d="M198.8,227.1c0.5,0,0.7-0.1,1.1,0.2c0.2,0.4,0.3,0.6,0.2,1c-0.1,0.2-0.2,0.5-0.3,0.7l-0.5,0.1
	C199.1,228.4,199.1,227.8,198.8,227.1z"/>
<path class="st2" d="M66.2,223.6c0.6,0,1.2,0,1.8,0.1c0.9,0.2,1.9,0.6,2.4,1.4c0.4,0.6,0.5,1.3,0.4,2c-0.3,1.5-1.7,2.3-3,3.1
	c0.9,1.3,2.3,2.9,3.5,3.9c1.2-1.2,1.9-2.8,2.1-4.5c0.7,0.1,1.5,0.2,2.2,0.3c-0.4,1.1-0.8,2.1-1.3,3.1c-0.4,0.8-1.1,1.7-1.4,2.6
	c0.1,0.2,0.1,0.2,0.2,0.4c0.8,1,1.3,0.6,2.2,0.9c0.1,0,0.1,0.1,0.2,0.1c0,0.4,0.1,0.8-0.2,1.2c-0.3,0.2-0.5,0.3-0.9,0.4
	c-1.3,0.1-2.5-1-3.4-1.8c-0.4,0.3-0.8,0.6-1.3,0.8c-1.6,0.9-3.9,1.2-5.6,0.7c-1.3-0.4-2.6-1.3-3.2-2.6c-0.4-0.9-0.5-1.8-0.2-2.8
	c0.6-1.8,2.3-2.7,3.9-3.5c-0.4-0.6-0.9-1.2-1.1-1.9c-0.3-0.8-0.3-1.6,0.1-2.4C64.1,224.3,65.1,223.9,66.2,223.6z M67.3,236.7
	c0.8-0.2,1.6-0.4,2.2-0.9c0.1-0.3,0.1-0.3-0.1-0.5c-0.7-1.1-2.7-3.4-3.8-4.1l-0.3,0c-1,0.6-1.8,1.2-2.1,2.3c-0.2,0.7-0.1,1.4,0.3,2
	c0.4,0.6,1.1,1.1,1.9,1.2C66,236.8,66.7,236.7,67.3,236.7z M67.2,228.7c0.7-0.5,1.5-1,1.6-1.9c0.1-0.3,0-0.6-0.2-0.9
	c-0.3-0.5-1.1-0.9-1.7-0.9c-0.6,0.3-1.3,0.7-1.4,1.4c-0.1,0.5,0,1.1,0.3,1.5c0.2,0.3,0.7,0.8,1,0.9C67,228.7,67,228.7,67.2,228.7z"
	/>
<path class="st2" d="M214.4,217.5c1.4,0.3,2.8,0.2,4.2,0c-0.3,0.4-0.6,0.8-0.8,1.2c2.5,2.5,6.7,5.2,10.3,5.7
	c-0.8,0.8-1.5,1.6-2.2,2.4c-1-0.3-2-1-3-1.2l-0.2,0.2c-0.1,0.3-0.1,0.5-0.2,0.8c-1.7,0.2-3.5,0-5.2,0c-2.8,0-5.7,0-8.5,0.1
	c-0.3-0.2-0.4-0.6-0.5-0.9l-0.3-0.1c-1,0.2-2,1-2.9,1.5c-0.6-0.9-1.3-1.6-2.1-2.2C207.1,223.3,211.1,220.6,214.4,217.5z
	 M215.5,224.3c1.6,0,3.3,0.1,5-0.1c-1.5-1.4-3.3-2.5-4.9-3.9c-1.1,0.9-4.1,2.9-4.7,3.9C212.2,224.6,214,224.3,215.5,224.3z"/>
<path class="st2" d="M123.8,229.2l0.1,0.1l0.2,0.1c0.9,0.4,1.8,0.6,2.7,0.8c-1.3,2.5-2.4,5-3.5,7.6c-1-0.4-2-0.8-3-1.1
	C121.7,234.8,123.1,231.5,123.8,229.2z"/>
<path class="st2" d="M122.5,223.4c1.6,1,3.1,2,4.7,2.9c-0.7,0.5-1.4,1.1-2,1.7l-0.2,0.1c-0.9-0.2-3.5-2.4-4.5-3
	C121.3,224.6,121.9,224,122.5,223.4z"/>
<path class="st2" d="M123.6,218.3c0.8,0.1,3.5,2.2,4.3,2.7c-0.7,0.5-1.4,1.1-2.1,1.6l-0.1,0.1c-0.7-0.1-3-2.2-3.9-2.8
	C122.3,219.3,123,218.8,123.6,218.3z"/>
</svg>
