<?xml version="1.0" encoding="utf-8"?>
<!-- Generator: Adobe Illustrator 28.0.0, SVG Export Plug-In . SVG Version: 6.00 Build 0)  -->
<svg version="1.1" id="Слой_1" xmlns="http://www.w3.org/2000/svg" xmlns:xlink="http://www.w3.org/1999/xlink" x="0px" y="0px"
	 viewBox="0 0 105 105" style="enable-background:new 0 0 105 105;" xml:space="preserve">
<style type="text/css">
	.st0{fill:url(#SVGID_1_);}
	.st1{fill:#FC4263;}
	.st2{fill:url(#SVGID_00000018929774164664847580000002073143772502548866_);}
	.st3{fill:url(#SVGID_00000033360321814956954470000013238697387633533320_);}
	.st4{fill:url(#SVGID_00000088819955085505175330000018178243767438071947_);}
	.st5{fill:url(#SVGID_00000057829772461202459470000002828138207692011156_);}
	.st6{fill:url(#SVGID_00000043436805286221134870000002589573178449659561_);}
	.st7{fill:url(#SVGID_00000109718849077702966900000002117122055679160461_);}
	.st8{fill:url(#SVGID_00000108289512070676191750000004576549219122308773_);}
	.st9{fill:url(#SVGID_00000114789337160860659650000004472352705750815124_);}
	.st10{fill:#FF7B8C;}
	.st11{fill:#FEA84C;}
	.st12{fill:#323132;}
	.st13{fill:#FBFBFB;fill-opacity:9.019608e-02;}
	.st14{fill:#FBFBFB;fill-opacity:0.1843;}
	.st15{fill:#FBFBFB;fill-opacity:8.627451e-02;}
	.st16{fill:#FBFBFB;fill-opacity:6.666667e-02;}
	.st17{fill:#FBFBFB;fill-opacity:0.4549;}
</style>
<g>
	
		<linearGradient id="SVGID_1_" gradientUnits="userSpaceOnUse" x1="75.3703" y1="751.6268" x2="41.3735" y2="728.9349" gradientTransform="matrix(1 0 0 1 0 -696.78)">
		<stop  offset="0" style="stop-color:#FFD04A"/>
		<stop  offset="1" style="stop-color:#FF867F"/>
	</linearGradient>
	<path class="st0" d="M83.3,30.3c-3.3-2.6-6.5-2.2-10.7-2.2c-2,0-5,0.3-6.8-0.7c-1.3-0.8-2-2.3-2-3.3v-0.1c0.3-1.5,0-3.4,0-4.9
		c0-4.3,0.6-7.5-2.9-11.2c-1.8-1.8-4.3-3-7.1-3.3c-2.8-0.3-5.5,0.4-7.7,1.8c-2.8,1.8-4.7,4.4-5,7.2c-0.2,0.9-0.2,1.9-0.2,3
		c0,0.1,0,0.2,0,0.3c0,0.2,0,0.3,0,0.4c0,0,0,0,0,0.1v0.1c0,0.1,0,0.2,0,0.2c0,0.8,0.1,1.7,0.1,2.5c0,1.1-0.2,3.3,0.1,4.3
		c0,0,0.2,0.8,0.6,1c0.4,0.3,1.1,0.3,1.6,0.3c0.8-0.1,2-0.6,2.8-0.3h0.1c0.2,0.2,0.2,0.3,0.2,0.4c0,0.5-0.3,1-0.8,1.3
		c-0.9,0.7-2.4,0.8-3.7,0.8c-0.8-0.1-2.9-0.5-3.5,0c-0.3,0.2-0.3,0.3-0.3,0.6c0,1.2,1.2,2.3,2.3,3c1,0.7,2.2,1.3,3.3,1.9
		c1.2,0.6,4.9,2.2,5.6,3.1v0.1l0,0c0,0.1,0,0.2-0.1,0.2c-0.3,0.3-0.9,0.3-1.3,0.3c-2.1,0-3.8-1.1-5.5-1.8l0,0
		c-0.6-0.3-1.2-0.6-1.9-0.4c-0.2,0-0.3,0.1-0.4,0.3c-0.2,0.2-0.1,0.5,0,0.8c0.1,0.1,0.1,0.1,0.1,0.2c0,0,0,0,0.1,0.1
		c1.5,1.7,8.9,2.3,9.8,3.4c0.1,0.1,0.1,0.2,0,0.3c-0.1,0.1-0.2,0.2-0.3,0.3c-1.6,0.7-4.6,0.3-6.2-0.3c-0.9-0.3-1.8-0.7-2.6-1.1
		c-0.4-0.2-0.8-0.5-1.3-0.6c-0.2-0.1-0.3-0.1-0.4,0c0,0,0,0-0.1,0c-0.2,0.1-0.3,0.1-0.3,0.3v0.1c0,0.3,0.1,0.5,0.4,0.8
		c1.7,1.3,8,2.2,9.1,2.8c0.1,0,0.1,0.1,0.1,0.2c0,0,0,0.1-0.1,0.1c-0.8,0.5-4.5,0.1-5.5-0.1c-0.7-0.2-1.3-0.3-1.9-0.5
		c-0.9-0.3-2.2-1.2-3.2-1.1h-0.1c-0.1,0.1-0.2,0.1-0.3,0.3c0,0.1,0,0.1,0,0.2c0.1,0.3,0.3,0.4,0.5,0.6c1,0.6,4.1,1.3,4.9,1.8
		c0.1,0.1,0.1,0.3,0,0.3s-0.3,0.1-0.4,0.1c-1.6,0.3-3.6-0.2-4.9-0.8c-0.4-0.3-0.8-0.6-1.2-0.8l0,0c-3.7-3.3-3.9-7.9-7.1-10.8
		c-0.9-0.9-2.2-1.5-3.7-1.6c-1.7-0.1-2.9,0.6-4.1,1.4l0,0c-2.8,2.5-3.7,6-3.4,9.3c0.3,3.2,1.8,6.6,4.8,8.8c3,2.2,6,1.8,9.9,1.8
		c1.4,0,3,0.1,4.4,0h0.1l0,0c1.2,0.1,2.2,0.4,3,1.2c1.3,1.2,1.2,2.9,1.2,4.4v5.1c0,1.2-0.1,2.3,0.1,3.5c0.3,2.5,1.8,5.1,4,6.9
		c1.9,1.6,4.6,2.6,7.5,2.5c2.9,0,5.6-1.2,7.5-2.8c2.9-2.4,3.9-5.1,3.9-8.5c0-1.4,0.2-8.1-0.1-8.8c-0.2-0.5-0.8-0.9-1.3-1.2
		c-1.6-0.7-2.9-0.1-4.5,0.3c-0.5,0.1-1,0.2-1.4,0c0,0,0,0-0.1,0c-0.2-0.2-0.2-0.3-0.2-0.4c-0.1-0.4,0.4-0.9,0.8-1.3
		c0.9-0.9,2.7-1.3,4.1-1.3c1,0,2,0.2,3,0c0.5-0.1,1-0.3,1.3-0.6c0.3-0.3,0.3-0.8,0.2-1.1c-0.9-3.6-9.5-5.7-12.9-7.5
		c-0.3-0.2-0.8-0.4-0.8-0.7c0-0.1,0-0.1,0-0.2c0-0.1,0.1-0.1,0.2-0.2c0.4-0.3,1.2-0.3,1.7-0.3c2.3-0.1,4.2,0.8,6.2,1.6
		c0.7,0.3,1.4,0.6,2.2,0.7c0.3,0,0.6,0,0.8-0.2c0,0,0.1,0,0.1-0.1c0.2-0.3,0.3-0.5,0.2-0.8c-0.5-1.9-6.9-2.7-9-3
		c-0.8-0.2-2.1-0.3-2.9-0.6c-0.2-0.1-0.3-0.3-0.3-0.4v-0.1c0.1-0.2,0.3-0.3,0.5-0.4c2.3-1.1,6-0.3,8.4,0.4c1.1,0.3,2.3,0.8,3.4,1.1
		c0.3,0.1,0.7,0.2,1,0l0.1-0.1c0.1-0.2,0.1-0.3,0-0.6c-0.7-1.4-8.3-2.1-10.3-2.7c-0.3-0.1-0.6-0.2-0.8-0.4c-0.1-0.1-0.1-0.2,0-0.3
		c0.1-0.1,0.2-0.1,0.3-0.2c0.6-0.2,1.3-0.2,1.8-0.3c3.4-0.3,6.5,0.6,9.4,1.8c0.3,0.1,0.6,0.2,0.8,0.2c0,0,0.1,0,0.1-0.1
		c0.1-0.1,0.2-0.2,0.2-0.3c0-0.3-0.2-0.5-0.3-0.8c-1.3-1.7-4.7-1.1-6-2l-0.1-0.1c0-0.1-0.1-0.1,0-0.2c0.1-0.2,0.4-0.3,0.7-0.4
		c0.9-0.3,2.2-0.3,3.2-0.1c8.6,1.3,9.3,14,16.1,16.1c1.3,0.4,2.5,0.3,3.8-0.2l0,0c0.4-0.2,0.8-0.4,1.2-0.7c2.5-1.9,2.8-5.5,2.8-8.1
		C87.5,35.6,86.2,32.5,83.3,30.3z"/>
	<path class="st1" d="M21.1,31c-0.1,0.8,0.3,1.6,0.5,2.3c1.1,3.8,2.8,7.4,4.8,10.8c0.3,0.4,0.5,1,0.8,1.3c0.5,0.8,1.2,1.8,1.9,2.8
		s1.6,1.9,2.3,2.7c0.9,0,1.8,0,2.9,0c0.9,0,1.8,0,2.6-0.1h-0.1c-1.4,0.1-2.9,0-4.4,0c-3.8,0-6.8,0.3-9.9-1.8c-3-2.2-4.5-5.6-4.8-8.8
		C17.5,37.1,18.4,33.5,21.1,31z"/>
	
		<linearGradient id="SVGID_00000103973940331821519810000006598618501946353564_" gradientUnits="userSpaceOnUse" x1="36.1837" y1="717.2495" x2="55.1999" y2="730.1833" gradientTransform="matrix(1 0 0 1 0 -696.78)">
		<stop  offset="0" style="stop-color:#FA3E5C"/>
		<stop  offset="1" style="stop-color:#FF6958"/>
	</linearGradient>
	<path style="fill:url(#SVGID_00000103973940331821519810000006598618501946353564_);" d="M41,24c0-0.2,0-0.3,0-0.4
		C40.9,23.6,40.9,23.8,41,24L41,24z"/>
	
		<linearGradient id="SVGID_00000173852368894118660550000015244856327748637831_" gradientUnits="userSpaceOnUse" x1="35.9824" y1="717.5454" x2="54.9986" y2="730.4793" gradientTransform="matrix(1 0 0 1 0 -696.78)">
		<stop  offset="0" style="stop-color:#FA3E5C"/>
		<stop  offset="1" style="stop-color:#FF6958"/>
	</linearGradient>
	<path style="fill:url(#SVGID_00000173852368894118660550000015244856327748637831_);" d="M41,24c0,0.2,0.1,0.3,0.1,0.5
		C41,24.3,41,24.1,41,24z"/>
	
		<linearGradient id="SVGID_00000036937395780822187570000010804973367979139483_" gradientUnits="userSpaceOnUse" x1="38.708" y1="713.5104" x2="57.7242" y2="726.4442" gradientTransform="matrix(1 0 0 1 0 -696.78)">
		<stop  offset="0" style="stop-color:#FA3E5C"/>
		<stop  offset="1" style="stop-color:#FF6958"/>
	</linearGradient>
	<path style="fill:url(#SVGID_00000036937395780822187570000010804973367979139483_);" d="M40.9,17.7c0,0.4,0,0.8,0,1.2l0,0
		C41,18.4,40.9,18,40.9,17.7C40.9,17.6,40.9,17.7,40.9,17.7z"/>
	
		<linearGradient id="SVGID_00000054254377624496070330000015908479298317606784_" gradientUnits="userSpaceOnUse" x1="43.6033" y1="706.3408" x2="62.6194" y2="719.2747" gradientTransform="matrix(1 0 0 1 0 -696.78)">
		<stop  offset="0" style="stop-color:#FA3E5C"/>
		<stop  offset="1" style="stop-color:#FF6958"/>
	</linearGradient>
	<path style="fill:url(#SVGID_00000054254377624496070330000015908479298317606784_);" d="M64.1,22.8c0,0.5-0.1,0.9-0.1,1.3
		C64,23.7,64,23.3,64.1,22.8z"/>
	
		<linearGradient id="SVGID_00000091696501719170528700000001725441989301130419_" gradientUnits="userSpaceOnUse" x1="36.7816" y1="716.371" x2="55.7978" y2="729.3049" gradientTransform="matrix(1 0 0 1 0 -696.78)">
		<stop  offset="0" style="stop-color:#FA3E5C"/>
		<stop  offset="1" style="stop-color:#FF6958"/>
	</linearGradient>
	<path style="fill:url(#SVGID_00000091696501719170528700000001725441989301130419_);" d="M40.9,23.6c0-0.2,0-0.3,0-0.3
		c0-0.7,0-1.3,0-2l0,0C40.9,22,40.9,22.8,40.9,23.6z"/>
	
		<linearGradient id="SVGID_00000031202940083404658080000017235671398194821290_" gradientUnits="userSpaceOnUse" x1="44.2337" y1="705.414" x2="63.2498" y2="718.3478" gradientTransform="matrix(1 0 0 1 0 -696.78)">
		<stop  offset="0" style="stop-color:#FA3E5C"/>
		<stop  offset="1" style="stop-color:#FF6958"/>
	</linearGradient>
	<path style="fill:url(#SVGID_00000031202940083404658080000017235671398194821290_);" d="M64,21.3L64,21.3c0,0.5,0,1.1,0,1.6l0,0
		C64.1,22.2,64.1,21.7,64,21.3z"/>
	
		<linearGradient id="SVGID_00000168819579200873814140000001200041828855129787_" gradientUnits="userSpaceOnUse" x1="44.7644" y1="704.6337" x2="63.7805" y2="717.5675" gradientTransform="matrix(1 0 0 1 0 -696.78)">
		<stop  offset="0" style="stop-color:#FA3E5C"/>
		<stop  offset="1" style="stop-color:#FF6958"/>
	</linearGradient>
	<path style="fill:url(#SVGID_00000168819579200873814140000001200041828855129787_);" d="M61,8c-1.8-1.8-4.3-3-7.1-3.3
		c-2.8-0.3-5.5,0.4-7.7,1.8c-2.8,1.8-4.7,4.4-5,7.2c-0.1,0.8-0.2,1.8-0.2,2.8c4.7-0.3,11.3-0.2,18.5,2.7c1.7,0.7,3.3,1.4,4.7,2.2
		c0-0.8-0.1-1.4-0.1-2.1C64,14.8,64.6,11.6,61,8z"/>
	
		<linearGradient id="SVGID_00000000917637276949839560000009150056779360509853_" gradientUnits="userSpaceOnUse" x1="37.9196" y1="714.6973" x2="56.9358" y2="727.6311" gradientTransform="matrix(1 0 0 1 0 -696.78)">
		<stop  offset="0" style="stop-color:#FA3E5C"/>
		<stop  offset="1" style="stop-color:#FF6958"/>
	</linearGradient>
	<path style="fill:url(#SVGID_00000000917637276949839560000009150056779360509853_);" d="M41,21.2c0-0.4,0-0.8,0-1.1
		c0-0.4,0-0.8,0-1.3C41,19.5,41,20.3,41,21.2z"/>
	<path class="st10" d="M41,56.4c0,0.7,0,1.3,0,2c5.5,2.9,11.4,4.5,18,4.9c1.6,0.1,3.4,0.2,4.9,0c0,3.4-0.9,6-3.9,8.5
		c-1.9,1.6-4.7,2.8-7.5,2.8c-2.8,0-5.5-1-7.5-2.5c-2.2-1.9-3.7-4.4-3.9-7c-0.2-1.2-0.1-2.3-0.1-3.5L41,56.4z"/>
	<path class="st11" d="M72.7,28.1c4.2,0,7.4-0.4,10.7,2.2c2.9,2.3,4.1,5.4,4.1,8.6c0,2.7-0.3,6.1-2.8,8.1c-0.3,0.3-0.8,0.5-1.2,0.8
		c0-0.1,0-0.1,0-0.2c0.1-0.8-0.3-1.8-0.5-2.5c-1.4-4.6-3.9-9-7-13C75.4,31.2,72.9,28.5,72.7,28.1z"/>
</g>
<g>
	<path class="st12" d="M46.7,81.3c0,0,0.1,0,0.2,0c0.2,0,0.2,0,0.2,0.2c0,0.5-1.2,2.2-1.5,2.8h0.2c0.5,0,0.8,0,1.2,0.2
		c0.5,0.2,0.8,0.7,0.8,1.1c0.4,1.7-1,3.4-2.2,4.8c0.7-0.2,1.3-0.4,2-0.7c0.1,0,0.1,0,0.2,0.1c0,0.2-0.2,0.3-0.3,0.4
		c-1,0.8-3.2,1.8-4.5,2.1c-0.8,0.2-1.5,0.1-2.3,0.1c-0.5,0.5-1.1,1.5-1.5,2.2c-0.7,1.1-4.9,7.6-5.7,7.9c-0.2,0-0.2,0-0.3,0
		c-0.2-0.2-0.2-0.2-0.3-0.4c-1-2.6,2.5-8.1,4.1-10.3c-0.3-0.2-0.5-0.4-0.7-0.7c-0.6-1-0.3-2.2,0-3.2c-0.5,0.3-0.8,0.8-1.2,1.2
		c-0.8,0.8-2.6,2.5-3.6,2.9c-0.3,0.1-0.6,0.2-1,0c-0.3-0.1-0.5-0.3-0.6-0.6c-0.5-0.9,0.1-2.4,0.6-3.2c-1.8,1.2-3.1,3.1-5.4,3.7
		c-0.4,0.1-0.9,0-1.2,0c-0.5-0.2-1-0.4-1.2-0.8c-0.6-1-0.2-2.5,0.2-3.5c0.6-1.4,2.2-3.7,4-4.3c0.2-0.1,0.5-0.2,0.9-0.1
		c0.4,0.1,0.6,0.4,0.9,0.6c0.2,0.2,0.4,0.2,0.6,0.3c0.1,0.1,0.1,0.2,0.2,0.2c0.1,0.3,0,0.6-0.1,0.8c-0.7,1.1-3.4,2.3-4.8,2.7h0
		c-0.4,0.5-0.6,1.2-0.6,1.9c0,0.3,0,0.8,0.3,1.1c0.2,0.2,0.5,0.2,0.7,0.2c1.9,0,5.1-3.1,6.1-4.2c0.5-0.7,1-1.4,1.7-1.9
		c0.2-0.2,0.2-0.2,0.5-0.2c0.2,0.1,0.3,0.2,0.5,0.3c0.2,0.2,0.2,0.4,0.1,0.7c-0.1,0.4-0.5,0.8-0.7,1.2c-0.5,0.9-1.1,2-1.3,3
		c0,0.3-0.1,0.7,0.1,1c0.1,0.1,0.1,0.1,0.2,0.1c0.9,0,3.1-2.2,3.6-2.8c0.5-0.5,0.8-1.2,1.4-1.6c0.1-0.1,0.2-0.2,0.5-0.2
		c0.1,0,0.2,0,0.2,0.2c1,0.9,0,2.2,0,3.2c0,0.2,0.1,0.4,0.3,0.7c0.3,0,0.5-0.2,0.7-0.5c1.1-1.4,3.8-4.2,5.7-4.9
		C44.5,84,46,81.8,46.7,81.3z M42.6,91.3c0.4-0.1,0.8-0.2,1.2-0.3c0.8-0.3,1.8-1.5,2.2-2.2c0.6-0.8,1.3-2.2,1-3.2
		c-0.1-0.3-0.3-0.5-0.7-0.7c-0.3-0.2-0.5-0.2-0.9-0.2c-0.8,1.4-1.8,2.8-2.7,4.3c-0.5,0.7-1.2,1.7-1.5,2.3
		C41.4,91.6,42.3,91.3,42.6,91.3z M42.9,86.5c0.3-0.3,0.5-0.7,0.7-1c-0.5,0.2-0.9,0.5-1.2,0.8c-1.5,1.2-2.8,2.8-4,4.2
		c-1.8,2.3-5.2,7.8-5.2,10.4c0,0.1,0,0.2,0,0.2h0c0.3-0.2,0.8-1.2,1-1.5c1-1.6,2.1-3.2,3.1-4.8c0.7-1.1,1.2-2.1,1.9-3.1l2.5-3.8
		C42.2,87.5,42.7,87,42.9,86.5z M24.8,86.6l0.7-0.2c0.8-0.3,2.5-1.1,2.8-1.8c0-0.2,0-0.2,0-0.3c-0.2-0.1-0.4-0.2-0.6-0.2
		C26.5,84.5,25.5,85.9,24.8,86.6z"/>
	<path class="st13" d="M43.6,85.4c-0.2,0.3-0.4,0.8-0.7,1c0-0.2,0.2-0.4,0.2-0.6c-0.2,0.1-0.5,0.2-0.7,0.3
		C42.8,85.9,43.2,85.7,43.6,85.4z"/>
	<path class="st12" d="M14.5,73.2c0.6-0.1,1.1-0.1,1.7,0.2c0.6,0.2,1,0.7,1.2,1.2c1.1,2.6-1.4,5.6-2.7,7.9c1.3-0.2,2.7-0.5,4-0.6
		c1,0,2,0,3,0c0.5-0.8,3.9-5.2,4.5-5.4c0.1,0,0.2,0,0.3,0c0.1,0.1,0.2,0.2,0.2,0.3c0.1,0.4-0.1,0.9-0.3,1.3
		c-0.4,0.7-0.9,1.2-1.4,1.8L23.2,82c0.5,0,1.1,0,1.5,0.2c0.1,0.1,0.1,0.1,0.1,0.2l0,0.1c-0.5,0.2-1.4,0-1.9,0h-0.1
		c-1.7,2.1-3.4,4.2-4.6,6.5c0.8-0.4,1.4-1.2,2-1.7c0.1,0,0.2,0,0.3,0c0,0,0,0,0,0.1c-0.1,0.4-0.9,1-1.2,1.3
		c-0.6,0.7-1.2,1.5-1.9,2.2c-0.1,0.2-0.3,0.2-0.5,0.3c-0.1,0.1-0.2,0.1-0.4,0c-0.1-0.1-0.2-0.2-0.2-0.4c-0.4-1.4,3.9-7.2,4.9-8.5
		c-2.5-0.2-4.9,0.2-7.1,0.8c-1.5,1.8-2.9,3.8-4.4,5.7l-3,4C7,93.1,7.1,93.4,7,93.7c-0.2,0.5-2.9,2.9-3.4,3c-0.2,0.1-0.3,0-0.4-0.1
		c-0.2-0.1-0.5-0.3-0.5-0.6c-0.1,0-0.1-0.2-0.1-0.2c0.2-0.3,0.6-0.7,0.8-1c0.8-0.8,1.4-1.8,2.1-2.7c2.2-2.8,4.3-5.7,6.3-8.5
		c-0.4,0.1-0.9,0.2-1.4,0.3c-1.1,0.3-2.8,1-4,0.8c-0.2,0-0.3-0.1-0.4-0.2c-0.1-0.1-0.1-0.2-0.1-0.3C6.1,83.9,6.7,84,7.1,84
		c0.2,0,0.3,0,0.4,0c0.6-0.1,1.1-0.2,1.6-0.4c1.1-0.2,2.1-0.5,3.2-0.8c1.1-1.7,4.3-6.2,4.4-7.9c0-0.2-0.1-0.5-0.3-0.7
		c-0.3-0.2-0.7-0.3-1.1-0.3c-2,0-6.4,1.9-7.8,3.1v0.6c-0.4,0.5-2.2,1.8-2.8,2c-0.2,0.1-0.2,0.1-0.3,0c-0.2-0.1-0.7-0.6-0.8-0.8
		c0-0.2,0-0.2,0.1-0.3c1.4-1.7,6.2-4,8.5-4.8C13,73.5,13.7,73.3,14.5,73.2z"/>
	<path class="st12" d="M89.5,89.1c-0.1,0.1-0.2,0.2-0.2,0.2c-0.8,0.8-2.7,2.6-3.9,2.7c-0.2,0-0.4,0-0.6-0.2
		c-0.2-0.2-0.3-0.6-0.3-0.8c0-0.7,0.2-1.3,0.4-1.9c0.7-2,1.9-4,3.7-5.6c0.7-0.5,1.6-1.2,2.7-1.2c0.3,0,0.7,0.1,0.9,0.3
		c0.2,0.2,0.4,0.4,0.4,0.7c-0.2,0.2-0.8-0.2-1.2-0.1c-1.5,0.3-3.6,3.2-4.3,4.3c-0.4,0.7-1.8,2.8-1.6,3.6c0.1,0.1,0.2,0.1,0.3,0.1
		c0.6,0,1.3-0.7,1.8-1c1.4-1.2,3.2-3,4.1-4.5c0.8-1.4,1.4-2.8,2.2-4.3c0.6-1.2,1.3-2.5,2-3.7c0.8-1.2,1.6-2.6,2.8-3.7
		c0.4-0.4,1.2-0.9,1.8-1c0.2,0,0.5,0.1,0.7,0.2c0.6,0.4,0.6,1.4,0.6,2c0.2-0.1,0.4-0.2,0.8-0.2c0.2,0,0.2,0,0.2,0.1
		c0,0.4-0.7,0.6-1,0.9c-0.2,0.2-0.4,0.6-0.7,0.9c-0.2-0.2-0.5-0.5-0.7-0.8c0.3-0.7,0.9-1.3,0.8-2.1c-0.1-0.2-0.1-0.3-0.3-0.5
		c-0.1,0-0.2,0-0.2,0c-0.4,0.1-0.8,0.6-1,0.8c-1.8,2.1-2.9,4.7-4.1,7c-0.4,1-0.9,1.8-1.4,2.8c-0.2,0.3-0.4,0.7-0.6,1
		c0.2-0.2,0.6-0.4,0.7-0.7c0.8-0.7,2.3-2.2,3.5-2.3c0.2,0,0.4,0,0.6,0.2c0.3,0.2,0.3,0.5,0.3,0.8c0.1,2.2-2.2,5.8-4.1,7.3
		c-0.7,0.6-1.6,1.2-2.7,1.2c-0.3,0-0.6,0-0.8-0.2c-0.2-0.2-0.4-0.4-0.4-0.8c0,0,0,0,0-0.1c0.3-0.1,0.8,0.3,1.3,0.2
		c1.6-0.5,3.8-3.7,4.6-4.9c0.3-0.5,1.4-2.3,1.2-2.8c-0.1-0.1-0.1-0.1-0.2-0.2c-0.3-0.1-0.8,0.2-1.1,0.3c-1.3,0.8-3.2,2.7-4.1,3.8
		c-0.4,0.6-0.7,1.3-1.1,1.9c-0.7,1.2-1.3,2.3-1.9,3.4c-1.1,1.8-2.3,4.1-4.3,5.4c-0.4,0.3-0.8,0.6-1.4,0.5c-0.3-0.1-0.7-0.3-0.8-0.5
		c-0.7-0.8-0.5-2-0.2-2.9c0.2-0.7,0.6-1.8,1.3-2.3h0.1c0.1,0.1,0.1,0.1,0.2,0.2c0.1,0.3-0.4,0.8-0.5,1.2c-0.4,1-0.7,2-0.5,3
		c0.1,0.2,0.1,0.6,0.3,0.7c0.1,0.1,0.2,0.1,0.4,0.1c0.7-0.1,1.3-0.9,1.6-1.3c1.8-2.3,3.4-5.5,4.7-8.1c0.2-0.2,0.2-0.4,0.3-0.6
		c0.1-0.1,0.1-0.2,0.2-0.2l-0.1,0C90,88.3,89.7,88.8,89.5,89.1z"/>
	<path class="st12" d="M71.2,82.8c0.2,0,0.3,0,0.6,0c0.2,0.1,0.6,0.2,0.7,0.3c0.7,0.8-0.4,2-0.7,2.8c0,0,0,0,0.1,0.1
		c0.2,0,0.3,0,0.4,0c1.3,0.3-0.7,2.8-0.2,3.6c0.1,0,0.1,0.1,0.2,0.1c0.9,0,3.5-2.8,4.1-3.5c0.4-0.5,0.7-1.2,1.3-1.6
		c0.2-0.1,0.2-0.1,0.4-0.1c0.3,0.2,0.6,0.7,0.6,0.9c-0.1,0.3-0.5,0.9-0.7,1.2c-0.4,0.8-1.8,3.2-1.4,3.8c0.1,0.1,0.1,0.2,0.2,0.2
		c0.3,0.1,0.8-0.2,1.1-0.4c0.7-0.5,1.2-1,1.8-1.5c0.6-0.6,2-2.3,2.6-2.7c0.1,0,0.2,0,0.2,0c0.3,0.2,0.4,0.3,0.5,0.6
		c0.1,0.3,0.1,0.7,0.1,1c-0.1,0.6-0.7,1.5-0.4,2c0.2,0.2,0.7,0.3,0.9,0.3c-0.3,0.3-0.6,0.8-0.9,1.1c-0.2,0.2-0.3,0.3-0.6,0.2
		c-0.1,0-0.2-0.1-0.3-0.1c-0.5-0.4-0.7-1.2-0.7-1.8c0-0.7,0.2-1.2,0.4-1.8c-1.4,1.2-2.9,3.2-4.7,4c-0.3,0.2-0.6,0.2-0.9,0.2
		c-0.3-0.1-0.8-0.4-0.9-0.6c-0.5-0.8,0.3-2.6,0.7-3.4c-0.9,0.8-1.7,1.5-2.7,2.2c-0.3,0.2-0.8,0.5-1.3,0.5c-0.2,0-0.3-0.1-0.5-0.2
		c-0.7-0.8-0.2-2.2,0-3c-0.3,0.3-0.8,0.6-1.1,0.9c-0.8,0.7-3.8,3.5-4.6,3.7c-0.1,0.1-0.2,0.1-0.3,0s-0.2-0.3-0.3-0.5
		c-0.4-1.5,1-3.8,1.9-5.2C68,84.9,69.4,83.2,71.2,82.8z M65.7,91.2c0.2-0.1,0.4-0.2,0.6-0.4c1.3-1,2.5-2.1,3.7-3.1
		c0.3-0.3,0.8-0.6,1-0.9c-0.1-0.1-0.2-0.2-0.3-0.2l-0.2-0.1c0.4-0.4,1.8-2.2,1.6-2.7c0-0.1-0.1-0.1-0.1-0.1
		c-0.1-0.1-0.2-0.1-0.2-0.1c-2.2,1.1-5.4,5-6,7.1C65.7,90.8,65.7,91,65.7,91.2z"/>
	<path class="st12" d="M53.1,83.5c0,0,0.2,0,0.2,0c0.2,0.1,0.4,0.3,0.5,0.6c0.6-0.1,1.5-0.2,2.1,0c0.7,0.3,0.5,1,0.7,1.6
		c0,0.2,0.2,0.5,0.2,0.8c-0.2,0.2-0.5,0.2-0.8,0.3c-0.2,0.2-0.4,0.6-0.6,0.9c-1,1.2-2.1,2.4-3.6,3.2c-0.2,0.1-0.3,0.2-0.5,0.2
		c-0.6,0.2-1.2,0.2-1.8,0.1c-0.5-0.2-0.8-0.4-1-0.8c-0.4-0.8,0-1.8,0.4-2.5C49.6,86.5,51.3,84.1,53.1,83.5z M50.2,90.8
		c1.5-0.2,3.5-2.2,4.3-3.2c0.3-0.4,0.7-0.8,0.9-1.2c-0.2-0.3-0.5-0.8-0.2-1.2c0.1-0.2,0.3-0.3,0.4-0.6c-0.1-0.1-0.2,0-0.4-0.1
		c-1.8,0.3-3.3,1.7-4.2,2.8c-0.5,0.7-1.5,1.9-1.3,2.8c0,0.2,0.2,0.4,0.4,0.4C50,90.7,50.1,90.7,50.2,90.8z"/>
	<path class="st12" d="M55.2,89.6c0.2-0.2,0.5-0.3,0.8-0.3c0.2,0,0.2,0,0.3,0.2c0.3,0.4-0.2,1.3,0.5,1.4c0.3,0.1,0.8-0.1,1-0.2
		c1.5-0.9,3-3.7,3.8-5c0.4-0.7,0.8-1.5,1.6-2.1c0.3-0.2,0.7-0.3,1.1-0.3c0.2,0,0.6,0,0.7,0.2c0.1,0.1,0.2,0.2,0.1,0.4
		c-0.2,0.8-1.5,2.2-2,2.9c-0.7,0.9-1.2,1.8-1.6,2.8c-0.1,0.3-0.2,0.7-0.2,1c0,0.1,0,0.1,0.2,0.1c0.3,0.1,0.8-0.2,1-0.4
		c0.8-0.5,1.3-1.2,2-1.8c0.2-0.2,0.4-0.4,0.6-0.5c0.1-0.1,0.1-0.1,0.2-0.1h0.1c0.1,0.2,0,0.2-0.1,0.3c-0.2,0.3-0.6,0.7-0.8,1
		c-0.8,0.8-1.9,2.2-3.2,2.4c-0.2,0-0.4,0-0.5-0.1c-0.2-0.1-0.3-0.3-0.3-0.4c-0.2-1.1,0.4-2.2,0.7-3.2c0.3-0.4,0.5-0.9,0.8-1.4
		c0.2-0.3,0.3-0.6,0.5-0.9c-0.2,0.2-0.5,0.5-0.6,0.8c-0.3,0.5-0.7,1.1-1,1.6c-0.7,1.2-2.1,3-3.8,3.5c-0.4,0.1-1,0.2-1.3,0.1
		c-0.3-0.1-0.5-0.3-0.6-0.6C54.8,90.5,54.8,90.1,55.2,89.6z"/>
	<path class="st14" d="M61.7,86.4l0.1,0.2C61.6,87,61.3,87.5,61,88h-0.3C61,87.5,61.4,86.9,61.7,86.4z"/>
	<path class="st15" d="M89.5,89.1c0.2-0.3,0.6-0.8,0.9-1l0.1,0c-0.1,0.1-0.1,0.2-0.2,0.2c-0.1,0.2-0.2,0.4-0.3,0.6
		C89.8,89,89.6,89.1,89.5,89.1z"/>
	<path class="st16" d="M93.8,84.4c0,0.2-0.1,0.2,0.1,0.3l0.1,0c-0.2,0.2-0.5,0.5-0.7,0.7C93.4,85.1,93.6,84.8,93.8,84.4z"/>
	<path class="st17" d="M61.7,86.4c0.2-0.3,0.4-0.6,0.6-0.8c-0.2,0.3-0.3,0.7-0.5,1L61.7,86.4z"/>
	<path class="st12" d="M36,80c0.1,0,0.2,0,0.2,0.1c0.2,0.2-0.2,1.7,0.3,2.2c0.1,0.1,0.2,0.1,0.3,0.2c0.5,0,1.6-0.2,2.1-0.3
		c0.3-0.1,0.8-0.3,1.2-0.3c0.1,0,0,0,0.2,0v0.1c-0.1,0.3-0.5,0.5-0.8,0.7c-0.1,0.1-0.2,0.1-0.3,0.1c-0.6,0.2-2.2,0.8-2.8,0.8
		c-0.2,0.1-0.3,0.1-0.5,0c-0.2,0-0.3-0.2-0.3-0.3C35.3,82.4,35.6,80.6,36,80z"/>
	<path class="st12" d="M81.4,80c0.1,0.1,0.2,0.1,0.2,0.2c0.1,0.2,0,0.3,0,0.5c-0.1,0.6,0,1.2,0.4,1.8c0.8,0,1.8-0.2,2.6-0.4
		c0.2-0.1,0.6-0.3,0.8-0.3c0.1,0,0.1,0,0.2,0c0.1,0.1,0.1,0.1,0,0.2c-0.1,0.3-0.6,0.4-0.8,0.6c-0.7,0.2-1.3,0.4-2.1,0.7
		c-0.3,0.2-0.8,0.3-1.2,0.4c-0.2,0-0.3-0.1-0.4-0.2c-0.4-0.4-0.4-1.1-0.3-1.6C80.8,81.3,80.9,80.3,81.4,80z"/>
</g>
</svg>
